<svg id="Warstwa_17" xmlns="http://www.w3.org/2000/svg" viewBox="0 0 1170 350"><style>.st0,.st1{fill-rule:evenodd;clip-rule:evenodd}.st0{opacity:.3;enable-background:new;fill:#fff}.st1{fill:#d6d6d6}.st2{fill:#e2e2e2}.st3{fill:#e8e8e8}.st4{fill:#f5f4f2}.st5{fill-rule:evenodd;clip-rule:evenodd;fill:#fff}.st6{fill:#d6d6d6}.st7{fill:#a3a3a3}.st8{fill:#8f8f8f}.st9{fill:#c4c4c4}.st10{fill:#afafaf}.st11{fill:#9b9b9b}.st12{fill:#b2b2b2}.st13{fill:#a0a0a0}.st14{fill:#bababa}.st15{fill:#8e8e8e}.st16{fill:#7f7f7f}.st17{fill:#aaa}.st18{fill:#848484}.st19{fill:#919191}.st20{fill:#b5b5b5}.st21,.st22,.st23,.st24{fill-rule:evenodd;clip-rule:evenodd;fill:#3f8f6f}.st22,.st23,.st24{fill:#54b08b}.st23,.st24{fill:#728d56}.st24{fill:#99c26d}.st25{display:none}.st26,.st27{fill-rule:evenodd;clip-rule:evenodd}.st26{display:inline;opacity:.1;enable-background:new}.st27{fill:#728d56}.st27,.st28,.st29{display:inline}.st28{fill-rule:evenodd;clip-rule:evenodd;fill:#54b08b}.st29{fill:#3f8f6f}.st29,.st30,.st31,.st32{fill-rule:evenodd;clip-rule:evenodd}.st30{display:inline;fill:#5a753d}.st31,.st32{fill:#b8c745}.st32{fill:#d9e354}.st33{opacity:.1;enable-background:new}.st34{fill:#fff}.st35,.st36{fill-rule:evenodd;clip-rule:evenodd;fill:#128a6a}.st36{fill:#28a533}.st37{fill:#ffdbc7}.st37,.st38,.st39,.st40{fill-rule:evenodd;clip-rule:evenodd}.st38{opacity:.1;enable-background:new}.st39,.st40{fill:#e8f078}.st40{fill:#edc0a8}.st41{fill:#c4937d}.st41,.st42,.st43,.st44,.st45{fill-rule:evenodd;clip-rule:evenodd}.st43,.st44,.st45{fill:#ffeae0}.st44,.st45{fill:#5a753d}.st45{fill:#35785d}</style><path id="Warstwa_18" class="st0" d="M-26-20h1220.7v398H-26V-20z"/><g id="bg"><path class="st1" d="M-15.5-22.5h1192V360h-1192V-22.5z"/><path class="st2" d="M-45 245l314-13 338 25 190-18 410.5 10.5L1218 164l-10-139-177 53-369-27-332 37L93 47-49 76l4 169z"/><path class="st3" d="M-66 230l343-26 327 41 200.5-31.5L1213 231l25-174-203 43-361-36-345 54-204-37-189 16-2 133z"/><path class="st4" d="M-77 206l339-19 350 28 214-20 405 13 11-101-203 11-360-24-348 36-242-19-170 18 4 77z"/><path class="st3" d="M235.5 109.5L169 109l15.5 19.5L204 137l8.4-5.6L228 143l12.5 31.5-4 23.5 9.5 3.5 3.5-23 57-16.5 4.7-10.4 11.3 7.9 7-14.5 16.5-23.5-110.5-12zM223 134l-4.6-4H229l10 1.8 1.5 8.7L223 134zm23 34.5l-4.5-15 7-4.5 1.2-15.2 3.8.7 5.9 9-13.4 25zm58-10.5l-49.5 9.5 8.2-18.9 3.8 5.9 16-4 15.5-8 9.4 6.5-3.4 9z"/><path class="st3" d="M521.5 106.5l-26.5-6L339 119l23.5 16 12-4.5 8 8 1.1-.5 1.9 9 23.5 20.5-9.5 36.5 11 2.5L416 170l41-25 3-10.3 4.5-.2 6-7 15-3 36-18zm-108.5 51L390 143l-1.4-7.6 8.9-4.4 21.7 7.1-6.2 19.4zm41-16L420 158l13.6-22.9 6.4-3.6 4 4 11.2-.5-1.2 6.5z"/><circle class="st5" cx="178.5" cy="160.5" r="20.5"/><path class="st6" d="M-3.5 248L7 204l-2 28.5 11.5-23 4.5 19v-40l7.5 31.5 13-41.5L70 163l-24 18.5-6.5 42.5 8 13.5L55 211l-1 21 13-42-5.5 44L82 209.5l-6-27 12.5 30-13 19 17-6.5 4.5-20 2 28 10-52.5-2 32 6.5 21 1-41.5 3 34 15-24-6.5 21 7.5 11.5L141 205v19.5l10-41-3 37 12-16-4 16.5 19 10-1.5-27.5L180 227l5.5-41-10-16.5 15 16.5-1.5 40 7.5-21.5-1 27 10.5-15 2 11 7.5-30L229 180l-10.5 23 2.5 26 7-12.5 3 12.5 8.5-19.5L237 226l13-25.5 2.5 26.5 6-13.5-3-18.5 7 18-.5 12.5 9.5-12.5-1.5 11.5 8-14-.5 12.5 6.5-24.5 5.5 28 1-15 5 13.5 7.5-29v23.5l12.5-41.5 7-3.5-4.5 10v39l10.5-20.5-2.5 16.5 14-8.5-2.5 8.5s10.5-21.5 11-20 2 29 2 29l1 4.5 5.5-22.5 2.5 17 7-10.5 2.5 16.5 10.5-32-1.5 33 10-9-.5 9.5 11.5-20.5 1.5 20 2-35 13 30.5 1-23 6 20.5 3.5-12 5 22.5 10.5-24-.5 19 9.5-22.5-5-25.5 10 26.5-7 26.5 14.5-13 3.5 17.5 8-19 1 18.5 9-8-1.5 8.5 7.5-25 1 21 8.5-22 3.5 24.5 2.5-49 3.5 50 8-12v13l12-15-4.5 16.5 20.5-23-11 24 9.5-6 2 8 3.5-14.5 4.5 16v-32l5.5 33 7.5-11 7 16.5 4.5-16 4 12L591 232v19.5l12-14-.5-17 8 17-6 13 13-12-1 8.5 9-20 1.5 24 8.5-26.5-.5 25 9-16-4 14.5 8.5-26 6.5 25.5-1-34 11 25.5.5-20 4 12.5L674 218l9.5 28 11-28.5-4 28 12.5-13 .5 9 6-24.5 6 23.5.5-17 5 20.5 9-30.5-2 25 10.5-8.5-3.5-12 10 12.5 1.5 7 1.5-9.5 6 9-1-12 8.5 10.5L759 214l9 18.5 1.5-7 8.5 7.5-4.5-24.5 11 24 4.5-12 2 15.5 10-16.5 10.5 17.5v-11l7.5 10.5 2.5-13.5 10.5 10.5 1-14 4.5 15 1.5-9.5 11 12-3-18.5 10.5 16L860 223l3 13.5 7.5-26.5 9-5.5-6 9-.5 24 5-11.5 2 8.5 3-12.5 7.5 14 2-8 6 6.5.5-9.5 6 11 7-9.5.5 9 7-9L928 240l-.5-14.5 10 14L940 228l6.5 11.5.5-13 2.5 7 8-6 8 12 2.5-7.5 4.5 5.5-4-16.5 12 17 2.5-11 3.5 11.5 2-26 2 26 9-20 .5-12.5 3.5 13-2 19 4-7 7 11.5-1-14.5 5 10 2-10 6 12.5 10-9.5-4.5 10.5 12-8.5 4.5 9 2-13 6 15 2.5-29.5 1.5 24.5 5-17.5 1.5 14.5 7.5-5.5-2 12.5 12-23-5 23.5 9.5-11-1-12 5.5 12.5-3.5 9 12-11-1.5 9.5 6.5-20 1 20 4-11-2-8 6 7.5 4.5 16 2-13.5 3 9.5-1.5-19 8 21 1-9.5 7.5 9.5 4.5-9.5 1.5 9 5.5-19 2.5 20.5 3-9.5 2 9 5-31 2.5 32 10-20.5-3 17.5 18-9.5-3.5 11.5h13.5l.5 25 1.5 34-1223.5-8 7.5-49 10.5 2.5z"/><path class="st3" d="M667 76.5l-60.9 12H600l.1 1.2-29.6 5.8 22.5 25 8.7-3.3L603 140l35.5 36 3 46.5 14-1-5-46 35-19.5 59-32 5-5.6 7 2.1 23.5-5 7.5-27.5L667 76.5zm-24.5 92L609 137l.6-19.9 3.4.4 7.5-6.5 24.5 10.5 6.5-16.5 7.3.4.2 16.1-16.5 47zm9.5-4l17-39 3.4-19.2 12.1.7 8-3.5 8.8 5.8L695 141l-43 23.5zm90.5-45l-41.5 20 8.6-24.8 5.9 3.8 4.5-9 24.2 7.3-1.7 2.7zM152 100l-29.5-4.5-26.2.4L77 87.5-6 107l.5 8L7 129.5l10.6-3 13.9 4 13 5 7-3.5L78 175l-7.5 32.5 13.5 1 2.5-28.5 4.2-11.5 26.8-19 17.3-22.1 11.2-1.9 13.5-8.5 22-10.5L152 100zm-93 28.5l10.5-6.5 13.7 2 .3 2.5L78 164l-19-35.5zm55 17l-19.8 12.4 2.3-23.4 25-9.5 6.5 1.1-14 19.4zm895-41l-153.5-15-25.8 3.8-.2-.8H822l.7 1.8L791 99l12 23.5 29-3.1 14.5 39.1L878 174l-8.5 29.5 10.5-1 9-27.5 46.5-18.5 11.3-30.4 11.2.4 51-22zM847.5 153l-10.2-34.1 3.7-.4 15 8 5.9-3.6 11.1 37.6-25.5-7.5zm30 8l-10-41.5 5-3 25.3 8-4.8 12-15.5 24.5zm55.5-10l-44.5 11.5L899 141l13.8-11.7 11.7 3.7 4-7.5 12.9.4L933 151z"/><path class="st3" d="M1179 112.5l7-9.5-11.5-16-153.5 19.5-16.6.3.1-1.8-5.5-2-.1 3.8-27.4.4-1.5-1.8-4.2 1.9-9.3.1 2 1 17 17 4.3-1.2L995 141l24.5 39 31 3.5 10 25.5 19.5-.5-18-29.5 9-15.5 28-3 33.4-25 18.6-.5 3.5-13.5 5.3-6.5 19.2-2.5zm-194.3 10.3l2.8-.8 10.9 3.2-.4 13.3-13.3-15.7zm35.8 47.2l-17-32 .3-11.1 10.7 12.6 14.5-4 13-5.7-6.5 17.7 12 22.5h-27zm38-4.5l-9-19 10.7-13.3 9.8 1.8 7.5-9 10.6 1.7-2.1 1.3-27.5 36.5zm37.5-9.5l-22-3 16.5-21.5 5-2.6 19 3.1 6-8.5 7.5 3 1.8 3.6L1096 156z"/></g><g id="grass"><path class="st7" d="M949.3 144.7l-16.5 26.9 29.2-20.7-12.7-6.2z"/><path class="st8" d="M983.7 194.6l-2.2 40.7-13.7-42 15.9 1.3z"/><path class="st7" d="M940.8 272l25.6-86.2 17.3 8.8-39.4 77.4h-3.5z"/><path class="st9" d="M931.7 271.5l17.6-126.8 18.1-3.1-32.7 130.3-3-.4z"/><path class="st7" d="M933.6 272l-7.1-110.1-11 4.9L929.6 272h4z"/><path class="st9" d="M915.5 166.8L893.8 146l32.7 15.9-11 4.9z"/><path class="st8" d="M902.9 215.4l1.4 29.7 8.6-30.7-10 1z"/><path class="st7" d="M929.9 272l-16.2-63.1-10.8 6.5 24.7 56.6h2.3zM678 266l-5.5-46-17 11 18 35h4.5z"/><path class="st8" d="M631.5 220.4l3.5 32.5 7-31-10.5-1.5z"/><path class="st7" d="M667.5 265.9l-25-50-11 4.5 32.5 45.5h3.5z"/><path class="st9" d="M655.5 231l-.5 19 17.5-30-17 11z"/><path class="st7" d="M706.5 176.5l4 28.5-14-25.5 10-3z"/><path class="st9" d="M678 266l18.5-96.5 10 7-26.2 89.4-2.3.1z"/><path class="st7" d="M681.5 265.9l15.5-35-1.5 21.5-11.5 13.5h-2.5zm360.5-2.4l-8-44.5-8-21 12.5 19.5 7 46h-3.5zm3.5 0l-3-51 12 2.5-5.1 48.4-3.9.1z"/><path class="st9" d="M1042.5 212.5l17-30.5-5 33-12-2.5z"/><path class="st7" d="M1090 200.5l4.5 38.5-12.5-40 8 1.5z"/><path class="st9" d="M1049.5 263l31.5-69 9 6.5-37.5 62.5h-3z"/><path class="st7" d="M1040.4 263.5l-16.2-45.9-6 3 20.1 42.8 2.1.1z"/><path class="st9" d="M1018.2 220.6l-1 29.5 7-32.5-6 3zm36.6 42.2l15.7-20.8 12-9-25.4 29.8h-2.3z"/><path class="st7" d="M1036.4 263.1l-11.3-17.7 3.4 9.3 5.6 8.3 2.3.1zm40.9-.3l7.8-17.2 6.4-3.5-11.5 20.8-2.7-.1zm-.6-.1l.4-14.8-2.3 14.9 1.9-.1zm4.4.1l7.8-11.9 4.5.4-10.7 11.4-1.6.1z"/><path class="st9" d="M1088.9 250.9l4 6.8.5-6.4-4.5-.4z"/><path class="st7" d="M1136.4 223.6l-4.8 18.8 10.3-18.9-5.5.1z"/><path class="st9" d="M1151.6 260.1l-9-39.2-6.2 2.7 13.1 36.5h2.1z"/><path class="st7" d="M1152.4 259.9l-8.2-54.4 7.1-3.4 2.3 57.8h-1.2z"/><path class="st9" d="M1144.2 205.5l-14.8-14.5 21.9 11.1-7.1 3.4z"/><path class="st7" d="M1154.1 259.7l4.7-32.5 7.2 2.8-10.2 29.8-1.7-.1z"/><path class="st9" d="M1158.8 227.2l11.2-11-4 13.8-7.2-2.8z"/><path class="st7" d="M1146.3 259.5l-4.8-13.2.2 5.9 2.9 7.2 1.7.1zm-3.2-.2l-4.5-5.5 1.9 5.5h2.6zm-896.6-38.1l7.4 23.1-16-23.2 8.6.1z"/><path class="st9" d="M222.8 266.1l14.1-48.2 9.6 3.3-20.5 44.9h-3.2z"/><path class="st7" d="M221.6 265.9l12.8-67-11.2-4.2-3.6 71.2h2z"/><path class="st9" d="M234.4 198.9l23.1-17.9-34.3 13.7 11.2 4.2z"/><path class="st7" d="M218.9 265.6l-7.5-40-11.2 3.5 16 36.7 2.7-.2z"/><path class="st9" d="M211.4 225.6L194 212.1l6.2 17 11.2-3.5z"/><path class="st7" d="M231 265.4l7.5-16.3-.2 7.3-4.6 8.8-2.7.2zm5-.3l7.1-6.8-3 6.8H236zm-95.9-15.6l3.6-29.8 11.3 7.1-11.9 22.7h-3z"/><path class="st8" d="M170.9 219.9l-2.3 21.1-4.6-20.1 6.9-1z"/><path class="st7" d="M147 249.4l16.6-32.4 7.3 2.9-21.5 29.5H147z"/><path class="st9" d="M155 226.8l.4 12.3-11.7-19.4 11.3 7.1z"/><path class="st7" d="M121.2 191.4l-2.7 18.5 9.3-16.5-6.6-2z"/><path class="st9" d="M140.1 249.5l-12.3-62.6-6.6 4.5 17.3 58 1.6.1z"/><path class="st7" d="M137.8 249.4l-10.3-22.7 1 14 7.6 8.7h1.7zm-46.4-1.7l-7.8-24.6-6.4-5 11.5 29.8 2.7-.2zm.6-.1l-.5-21.2 2.4 21.3-1.9-.1zm-4.4.1l-7.8-16.9-4.5.5L86 247.6l1.6.1z"/><path class="st9" d="M79.8 230.8l-4 9.6-.5-9.1 4.5-.5z"/><path class="st7" d="M9.4 156.7l12.5 22.8-22-17.6 9.5-5.2zm6.5 107.8l-19.4-73-13 7.5 29.7 65.5h2.7z"/><path class="st9" d="M22.8 264.1L9.4 156.7l-13.6-2.6 24.6 110.4 2.4-.4z"/><path class="st7" d="M21.3 264.5l5.4-93.2 8.3 4.1-10.7 89.1h-3z"/><path class="st9" d="M35 175.4l16.4-17.5-24.7 13.4 8.3 4.1z"/><path class="st8" d="M44.5 216.5l-1.1 25.3-6.5-26.1 7.6.8z"/><path class="st7" d="M24.1 264.5l12.2-53.4 8.2 5.4-18.7 48h-1.7z"/></g><g id="trees"><path class="st9" d="M615.5 97.8L646 43.2l15-11.8 12.5-2.3-55 77.7-3-9z"/><path class="st8" d="M617.5 92.8L633 42.7l17.5-7.7L616 99.6l1.5-6.8zm-65 22.7l66-8.7-69 14.1 3-5.4z"/><path class="st7" d="M556.5 109.6l61-16.8 1 14-66 8.7 4-5.9zM524 159.1l-2.5-54.5 11.5-3.2-9 57.7zm-22.5 111.4l7.5-34.1 18.5-54.1-1 88.2h-25z"/><path class="st9" d="M527.5 182.3l22-77.3-16.5-3.6-24 135 18.5-54.1z"/><path class="st10" d="M527.5 182.3l22-77.3 7 4.6-25.5 160-4.5.9 1-88.2z"/><path class="st7" d="M533 101.4l73.5-64.1 18.5-.5-75.5 68.2-16.5-3.6z"/><path class="st9" d="M521.5 104.6l65-77.8 20 10.5-73.5 64.1-11.5 3.2z"/><path class="st8" d="M549.5 105L625 36.8l19-4.5-87.5 77.3-7-4.6z"/><path class="st7" d="M556.5 109.6L644 32.3l17-.9-104.5 78.2z"/><path class="st11" d="M413-20.9l18 28.6 25.5-1.3 24 39 40-1.8 8.5 11.9 46-15 14 12.2 27 3.8 2.5-11.6 25 3.3 12-8.2 49 10.9 13-22.7 56.5-1.8 49-43.2-410-4.1z"/><path class="st10" d="M431-25l2 26.4L462.5 0 490 28l35-1.2L536 40l40.5-15.9L598 45l12.5-9.5 42.5-6.9 36.5 9.6 1-15.5 70.5-3.6 46.5-37.7L431-25z"/><path class="st9" d="M450-25l4 13.6 23 5.5 12 29.5 34-8.1 16.5 7.2 38.5-5 26 8.2 29-9.5 41.5 7.7 11-6.8 66-15 16-25.5L450-25z"/><path class="st7" d="M340.7 70.6L374 8.5l4 13.7-34.6 52.6-2.7-4.2z"/><path class="st12" d="M336.5 64.1l24-61.3L374 8.5l-33.3 62.1-4.2-6.5z"/><path class="st13" d="M334.5 140.1l2 8.9L319 275.9l-8-4.3 23.5-131.5z"/><path class="st14" d="M342.5 166.5l-5.9-19.6-17.6 129 13-.5 10.5-108.9z"/><path class="st7" d="M332 275.4l10.5-108.9 6.5 109.8-17-.9z"/><path class="st8" d="M342.5 166.5L310 65.6l10.5-.5L343 150l-.5 16.5z"/><path class="st14" d="M343 150l9-5.7 6 131.6-9 .4-6.5-109.8.5-16.5z"/><path class="st7" d="M343 150l-14-52.4 7.5-33.5 15.5 80.2-9 5.7z"/><path class="st12" d="M329 97.6l-8.5-32.5 4-14.2 12 13.2-7.5 33.5z"/><path class="st13" d="M352 144.3l8.5 7.5 2 121.2-4.5 2.9-6-131.6z"/><path class="st9" d="M352 144.3l-15.5-80.2L347 79.2l13.5 72.6-8.5-7.5z"/><path class="st10" d="M320.5 65.1L273 19.8 262 42l48 23.6 10.5-.5z"/><path class="st7" d="M320.5 65.1L273 19.8l16 4.3 31.5 41z"/><path class="st15" d="M320.5 65.1l-31.5-41 6-8.5 29.5 35.3-4 14.2z"/><path class="st8" d="M343.1 74.8L378 22.2l2 7-33 50-3.9-4.4z"/><path class="st8" d="M334 25.9l-33 5.5-11 16.4L252 66l-12.5-6L193 84.9l-28.5-37.1-15.5 6.1-32-32.3-13 6.7-46-40 516.5-1.5-63 50.7-25.5-6.1-29.5 18.8-43-18.8L381 52l-19.5-18.8L348 44.8l-14-18.9z"/><path class="st7" d="M75-11.7l25 30.1 33.5-4.2 24 25.9 19.5-5.7 32 25.5 17.5-22.2L256 53.3l23.5-14.2L290 16l50 1.9 13 10.9 25-6.6L391 34l27-18.9 37.5 18.4 31-11.8 24 2.8 53-36.2H75z"/><path class="st14" d="M139.5.9l21 19.9 25.5 1.4 12.5 13.6L228 22.2l28.5 6.6 30-22.7L340 1.9l17 14.6 17-.9 15.5 5.2 34-15.6 29 15.6 23.5-6.6 16.5.9 39-27.3L116-13.7 139.5.9z"/><g><path class="st8" d="M816-4.7l72.5 101.3-8 12.3-75-113.6H816zm74.5 81.2L842-3.2l-17-1.5 62 95.1 3.5-13.9z"/><path class="st16" d="M921.5 88.8L1098-3.7l17.5-1-198 105.9 4-12.4z"/><path class="st17" d="M925.5 81.1L1072-2.7l26-1-176.5 92.5 4-7.7z"/><path class="st11" d="M931.5 276l-31-99.2-5 16.4 21 83.3 15-.5z"/><path class="st17" d="M916.5 276.5l-21-83.3L892 204l7.5 69.9 17 2.6z"/><path class="st9" d="M931.5 276l8.5-3.1-36.5-113.6-3 17.5 31 99.2z"/><path class="st17" d="M900.5 176.8l3.5-73 13.5-2.6-14 60.1-3 15.5z"/><path class="st9" d="M900.5 176.8l3.5-73L891.5 75l4 118.2 5-16.4z"/><path class="st11" d="M895.5 193.2l-4-118.2-5 90.5L892 204l3.5-10.8z"/><path class="st18" d="M904 103.8l4-52.5 24.5-40.6L947 6.1l-43 97.7z"/><path class="st8" d="M904 103.8l43-97.7 23.5-2.6-53 97.7-13.5 2.6z"/><path class="st17" d="M891.5 75l-11 33.9 6 56.6 5-90.5zm0 0l16-21.6-3.5 50.4L891.5 75z"/><path class="st8" d="M917.5 101.2L1128-5.8l-12.5 1.1-198 105.9z"/><path class="st7" d="M887 90.4L825-4.7h-9L886 95l1-4.6z"/><path class="st19" d="M682.5-27.9L697 14.8l38 3.1 26.5 13.9 12.5-3.1 10.5 15.9L832 17.9l29.5 1L875 30.2l21.5-17.4 36 27.2L968 22l7.5-10.3L995 21v14.9l53.5 7.7 9-32.9 38 16.5 79-28.7 14.5-24.3-506.5-2.1z"/><path class="st7" d="M689.5-30.4l16 36 35.5 1 18.5 13.9 14-4.7 18.5 8.8L835.5 5l28 7.2 10.5 7.2 17.5-13.3L918 17.9l24-9.8 17.5 9.8L977 5.6l27 6.1 4.5 14.9 30.5 11.3 5.5-34.4 46.5 9.8L1153.5.9 1165-33l-475.5 2.6z"/><path class="st20" d="M742.5-6.3l15 15.5 18-3.6 14 10.8 37-19.1 40 8.8 18-8.8 30 13.9 20-8.2 22 5.1 20-8.7 35.5 6.2 5 11.8 12.5 9.8L1040-4.2l49 8.7 41-8.7 7.5-25.2-444.5-.5 49.5 23.6z"/></g></g><g id="butterflies"><path class="st21" d="M387.8 132.4l2.5-23.2 12 15.3-14.5 7.9z"/><path class="st22" d="M402.3 124.5l15.1-11.5-2.5 22.6-12.6-11.1z"/><path class="st23" d="M390.8 139l11.5-14.5.3 6.4-1.9 5.1-9.9 3z"/><path class="st24" d="M402.3 124.5l7.6 16.7-9.2-5.2 1.6-11.5z"/><path class="st21" d="M433.8 87.3l-10.9-12.1 13.6.9-2.7 11.2z"/><path class="st22" d="M436.5 76.1l1-13.2L448 74.7l-11.5 1.4z"/><path class="st23" d="M438.6 88.8l-2.1-12.7 3.4 2.8 1.8 3.4-3.1 6.5z"/><path class="st24" d="M436.5 76.1l12.2 3.8-7 2.4-5.2-6.2z"/><path class="st21" d="M160.2 121.8l11-12.1-13.6.9 2.6 11.2z"/><path class="st22" d="M157.6 110.6l-1-13.2-10.6 11.8 11.6 1.4z"/><path class="st23" d="M155.4 123.3l2.2-12.7-3.4 2.8-1.8 3.4 3 6.5z"/><path class="st24" d="M157.6 110.6l-12.2 3.8 7 2.4 5.2-6.2z"/><g><path class="st21" d="M233.4 98.8l-11.2-6.1 3.2 10.1 8-4z"/><path class="st22" d="M225.4 102.8l-9.9 3.3 11 5.8-1.1-9.1z"/><path class="st23" d="M235.4 102.1l-10 .7 2.8 2.2 2.9.7 4.3-3.6z"/><path class="st24" d="M225.4 102.8l5.1 8.6.6-5.7-5.7-2.9z"/></g><g><path class="st21" d="M991.5 110.5l9.5-8.6-10.7-.4 1.2 9z"/><path class="st22" d="M990.3 101.5l.2-10.3-9.1 8.3 8.9 2z"/><path class="st23" d="M987.6 111.2l2.7-9.7-2.9 1.9-1.6 2.5 1.8 5.3z"/><path class="st24" d="M990.3 101.5l-9.8 2 5.3 2.4 4.5-4.4z"/></g><g><path class="st21" d="M1074.1 131.4l4.5-16.1-12.1 7 7.6 9.1z"/><path class="st22" d="M1066.5 122.3l-7-11.6-4.3 15.6 11.3-4z"/><path class="st23" d="M1070.3 135l-3.8-12.7-1.9 4.2-.1 3.9 5.8 4.6z"/><path class="st24" d="M1066.5 122.3l-9.5 9.1 7.5-1 2-8.1z"/></g></g><g id="text" class="st25"><path class="st26" d="M293.3 291l60.7-6.5 60.5 2.5 34.5-1.5 89 3.5 58-4 83.5 6-91.5 3.5-51-.5-71 1-52-4-55.5 3-65.2-3z"/><path class="st27" d="M302 160.6l46.3 130.3h-38.9l-9.6-73.3 2.2-57z"/><path class="st28" d="M289.1 131.9l24.8 29.3-14.1 56.4-10.7-85.7z"/><path class="st29" d="M409.5 202.5l25-63.5 3 84.5-28-21z"/><path class="st30" d="M389.3 176.3l48.2 47.2 3 67.5-59-87.5 7.8-27.2z"/><path class="st28" d="M358.5 290.9l-5.7-151.7 36.5 37.1L375.7 291l-17.2-.1z"/><path class="st29" d="M472.5 200.5l70.5 10-9.5 15-61.5 7 .5-32z"/><path class="st27" d="M452.8 291l15.7-152h9.5l-1.2 152h-24z"/><path class="st28" d="M468.5 139l97.5-7-7 35.5-91.7-16.7 1.2-11.8z"/><path class="st27" d="M636.5 220l-51-8 6.5-20.5 62.5 9-18 19.5z"/><path class="st30" d="M585.5 205l4.1 86h-32.1l2-14 26-72z"/><path class="st28" d="M677 156l-13.6 68.5-26.9-4.5 27-67.5L677 156z"/><path class="st27" d="M618 132l63.5-.5L677 156l-70.5-2.5L618 132z"/><path class="st29" d="M559.5 277l19-143.5L618 132l-58.5 145z"/></g><g id="text_x5F_flowers"><path class="st31" d="M318.5 110.5l.5 19-14.5-19.5 14 .5z"/><path class="st32" d="M289.1 131.9l11.4-28.9 18 7.5-29.4 21.4zm0 0l37.8-9.7-10.5 14.8-27.3-5.1z"/><path class="st31" d="M326.9 122.2l-5.9 34.3-4.6-19.5 10.5-14.8z"/><path class="st32" d="M289.1 131.9l15.4 9.1-19 5.5 3.6-14.6z"/><path class="st31" d="M304.5 141v22.5l-19-17 19-5.5z"/><path class="st32" d="M289.1 131.9L279 144.5l-8.5-16.5 18.6 3.9z"/><path class="st31" d="M270.5 128l-6.5 41.5 15-25-8.5-16.5z"/><path class="st32" d="M289.1 131.9l-3.6-25.4L271 119l18.1 12.9z"/><path class="st31" d="M285.5 106.5L255 114l16 5 14.5-12.5zM615.2 190.7l.5 19-14.5-19.5 14 .5z"/><path class="st32" d="M585.7 212.1l11.5-28.9 18 7.5-29.5 21.4zm0 0l37.9-9.7-10.5 14.8-27.4-5.1z"/><path class="st31" d="M623.6 202.4l-5.9 34.3-4.6-19.5 10.5-14.8z"/><path class="st32" d="M585.7 212.1l15.5 9.1-19 5.5 3.5-14.6z"/><path class="st31" d="M601.2 221.2v22.5l-19-17 19-5.5z"/><path class="st32" d="M585.7 212.1l-10 12.6-8.5-16.5 18.5 3.9z"/><path class="st31" d="M567.2 208.2l-6.5 41.5 15-25-8.5-16.5z"/><path class="st32" d="M585.7 212.1l-3.5-25.4-14.5 12.5 18 12.9z"/><path class="st31" d="M582.2 186.7l-30.5 7.5 16 5 14.5-12.5z"/><g><path class="st31" d="M354.9 187l8.1-15.4 7 10.7-15.1 4.7z"/><path class="st32" d="M354.9 187l15.4 3.1-5.1 9.7-10.3-12.8z"/><path class="st31" d="M354.9 187l4.6 17.8-12-.7 7.4-17.1z"/><path class="st32" d="M354.9 187l-16.1-1.6 3 12 13.1-10.4z"/><path class="st31" d="M354.9 187l-3.8-17.4-10.2 7.3 14 10.1z"/></g><g><path class="st31" d="M566.2 132l11.6-12.9 4.2 12.1-15.8.8z"/><path class="st32" d="M566.2 132l14.2 6.7-7.3 8.3-6.9-15z"/><path class="st31" d="M566.2 132l.2 18.4-11.4-3.6 11.2-14.8z"/><path class="st32" d="M566.2 132l-15.2-5.4v12.3l15.2-6.9z"/><path class="st31" d="M566.2 132l.5-17.8-11.7 4.7 11.2 13.1z"/></g><g><path class="st31" d="M457.7 246.9l7.6-15.6 7.4 10.5-15 5.1z"/><path class="st32" d="M457.7 246.9l15.4 2.7-4.7 9.8-10.7-12.5z"/><path class="st31" d="M457.7 246.9l5.1 17.7-12-.4 6.9-17.3z"/><path class="st32" d="M457.7 246.9l-16.1-1.1 3.2 11.9 12.9-10.8z"/><path class="st31" d="M457.7 246.9l-4.4-17.3-9.9 7.7 14.3 9.6z"/></g></g><g id="little_x5F_flowers"><path class="st33" d="M898 334.5l9.3-1 8.3 1.9-9.9 1.5-7.7-2.4z"/><path class="st8" d="M908.3 328.9l-2.3 6.7-2-7.5 4.3.8z"/><path class="st7" d="M897.1 324.4l10.8-2.5 9.7 4.8-11.6 3.9-8.9-6.2z"/><path class="st34" d="M903.1 325.4l4.6-1 3.1 1.6-5 .9-2.7-1.5z"/><path class="st33" d="M940.9 293.7l-9.2-1-8.4 1.9 10 1.5 7.6-2.4z"/><path class="st8" d="M930.7 288.1l2.3 6.8 2-7.6-4.3.8z"/><path class="st7" d="M941.9 283.6l-10.8-2.5-9.7 4.9 11.6 3.8 8.9-6.2z"/><path class="st34" d="M935.9 284.6l-4.6-1-3.1 1.6 5 1 2.7-1.6z"/><path class="st33" d="M973.2 315l-9.2-2-8.4 1 9.7 2.6 7.9-1.6z"/><path class="st8" d="M963.6 308.3l1.6 7 2.7-7.3-4.3.3z"/><path class="st7" d="M975.2 305.1l-10.5-3.7-10.1 3.8 11.1 5.1 9.5-5.2z"/><path class="st34" d="M969.2 305.4l-4.5-1.4-3.3 1.2 4.9 1.5 2.9-1.3z"/><path class="st33" d="M1091.3 322.5l-7.2-1.5-6.7.8 7.7 2 6.2-1.3z"/><path class="st8" d="M1083.7 317.3l1.2 5.5 2.2-5.8-3.4.3z"/><path class="st7" d="M1092.9 314.7l-8.3-2.9-8 3 8.8 4 7.5-4.1z"/><path class="st34" d="M1088.1 315l-3.6-1.2-2.5 1 3.8 1.2 2.3-1z"/><path class="st33" d="M1037.1 342.1l-7.2-1.6-6.7.8 7.7 2.1 6.2-1.3z"/><path class="st8" d="M1029.5 336.8l1.2 5.5 2.2-5.7-3.4.2z"/><path class="st7" d="M1038.7 334.3l-8.3-2.9-8 3 8.8 4 7.5-4.1z"/><path class="st34" d="M1033.9 334.5l-3.6-1.1-2.5.9 3.8 1.2 2.3-1z"/><path class="st33" d="M1069.3 298l-9.3-1-8.3 1.9 10 1.5 7.6-2.4z"/><path class="st8" d="M1059.1 292.4l2.3 6.7 2-7.5-4.3.8z"/><path class="st7" d="M1070.3 287.9l-10.8-2.5-9.7 4.8 11.6 3.9 8.9-6.2z"/><path class="st34" d="M1064.3 288.9l-4.6-1-3.1 1.6 5 .9 2.7-1.5z"/><path class="st33" d="M1137.2 331.2l-9.3-1-8.3 1.9 10 1.5 7.6-2.4z"/><path class="st8" d="M1127 325.6l2.3 6.8 1.9-7.6-4.2.8z"/><path class="st7" d="M1138.2 321.1l-10.8-2.5-9.7 4.9 11.6 3.8 8.9-6.2z"/><path class="st34" d="M1132.2 322.1l-4.7-1-3 1.6 5 1 2.7-1.6z"/><path class="st33" d="M1153.5 293.1l-9.3-1-8.3 1.9 10 1.5 7.6-2.4z"/><path class="st8" d="M1143.3 287.4l2.3 6.8 2-7.5-4.3.7z"/><path class="st7" d="M1154.5 283l-10.8-2.5-9.7 4.8 11.6 3.9 8.9-6.2z"/><path class="st34" d="M1148.5 284l-4.6-1-3.1 1.5 5 1 2.7-1.5z"/><path class="st33" d="M863.6 307.5l-7.8-1.7-7.2.8 8.3 2.2 6.7-1.3z"/><path class="st8" d="M855.4 301.7l1.4 6 2.3-6.2-3.7.2z"/><path class="st7" d="M865.4 299l-9-3.2-8.7 3.2 9.5 4.4 8.2-4.4z"/><path class="st34" d="M860.2 299.2l-3.9-1.2-2.7 1 4.2 1.3 2.4-1.1z"/><path class="st33" d="M740.7 324.5l9.3-1 8.3 1.9-9.9 1.5-7.7-2.4z"/><path class="st8" d="M751 318.8l-2.3 6.8-2-7.5 4.3.7z"/><path class="st7" d="M739.8 314.4l10.8-2.5 9.7 4.8-11.6 3.9-8.9-6.2z"/><path class="st34" d="M745.8 315.4l4.6-1 3.1 1.5-5 1-2.7-1.5z"/><path class="st33" d="M661.7 340.7l9.3-1 8.3 1.9-9.9 1.5-7.7-2.4z"/><path class="st8" d="M672 335.1l-2.3 6.8-2-7.6 4.3.8z"/><path class="st7" d="M660.8 330.6l10.8-2.5 9.7 4.9-11.6 3.8-8.9-6.2z"/><path class="st34" d="M666.8 331.6l4.6-1 3.1 1.6-5 1-2.7-1.6z"/><path class="st33" d="M781.9 293.7L774 292l-7.2.9 8.3 2.2 6.8-1.4z"/><path class="st8" d="M773.7 288l1.3 5.9 2.4-6.2-3.7.3z"/><path class="st7" d="M783.6 285.2l-9-3.1-8.7 3.2 9.6 4.4 8.1-4.5z"/><path class="st34" d="M778.4 285.5l-3.8-1.3-2.8 1.1 4.2 1.3 2.4-1.1z"/><path class="st33" d="M588.8 339.6l9.3-1 8.3 1.9-10 1.5-7.6-2.4z"/><path class="st8" d="M599 333.9l-2.3 6.8-2-7.5 4.3.7z"/><path class="st7" d="M587.8 329.5l10.8-2.5 9.7 4.8-11.6 3.9-8.9-6.2z"/><path class="st34" d="M593.8 330.5l4.6-1 3.1 1.5-5 1-2.7-1.5z"/><path class="st33" d="M608.5 319.1l9.3-1 8.3 1.9-10 1.6-7.6-2.5z"/><path class="st8" d="M618.8 313.5l-2.4 6.8-1.9-7.6 4.3.8z"/><path class="st7" d="M607.5 309l10.9-2.5 9.6 4.9-11.6 3.8-8.9-6.2z"/><path class="st34" d="M613.5 310l4.7-1 3.1 1.6-5.1 1-2.7-1.6z"/><path class="st33" d="M521.2 296.5l9.3-1 8.3 1.9-9.9 1.5-7.7-2.4z"/><path class="st8" d="M531.5 290.8l-2.3 6.8-2-7.5 4.3.7z"/><path class="st7" d="M520.3 286.4l10.8-2.5 9.7 4.8-11.6 3.9-8.9-6.2z"/><path class="st34" d="M526.3 287.4l4.6-1 3.1 1.5-5 1-2.7-1.5z"/><path class="st33" d="M514.6 336.5l-7.9-1.7-7.2.8 8.3 2.2 6.8-1.3z"/><path class="st8" d="M506.4 330.7l1.3 6 2.4-6.2-3.7.2z"/><path class="st7" d="M516.3 328l-9-3.2-8.6 3.3 9.5 4.3 8.1-4.4z"/><path class="st34" d="M511.1 328.2l-3.8-1.2-2.8 1 4.2 1.3 2.4-1.1z"/><path class="st33" d="M497.5 320.4l-7.9-1.7-7.2.9 8.3 2.2 6.8-1.4z"/><path class="st8" d="M489.2 314.7l1.4 6 2.3-6.3-3.7.3z"/><path class="st7" d="M499.2 311.9l-9-3.1-8.7 3.2 9.6 4.4 8.1-4.5z"/><path class="st34" d="M494 312.2l-3.9-1.3-2.7 1.1 4.2 1.3 2.4-1.1z"/><path class="st33" d="M399.2 341.4l-8.5-1.8-7.8.8 9 2.3 7.3-1.3z"/><path class="st8" d="M390.3 335.6l1.5 6 2.5-6.2-4 .2z"/><path class="st7" d="M401 332.9l-9.7-3.2-9.4 3.2 10.3 4.4 8.8-4.4z"/><path class="st34" d="M395.4 333.2l-4.2-1.3-3 1 4.6 1.3 2.6-1z"/><path class="st33" d="M352.9 311.1l-7-1.6-6.6.9 7.6 2.1 6-1.4z"/><path class="st8" d="M345.6 305.4l1.2 6 2.1-6.3-3.3.3z"/><path class="st7" d="M354.6 302.6l-8.1-3.1-7.8 3.4 8.5 4.2 7.4-4.5z"/><path class="st34" d="M349.9 302.9l-3.4-1.2-2.6 1.1 3.8 1.2 2.2-1.1z"/><path class="st33" d="M416.6 283.7l-7.8-1.7-7.3.8 8.4 2.2 6.7-1.3z"/><path class="st8" d="M408.4 277.9l1.3 6 2.4-6.2-3.7.2z"/><path class="st7" d="M418.3 275.2l-8.9-3.2-8.7 3.2 9.5 4.4 8.1-4.4z"/><path class="st34" d="M413.1 275.4l-3.8-1.2-2.8 1 4.2 1.3 2.4-1.1z"/><path class="st33" d="M230.3 333.4l-8.6-2-8 1.1 9.2 2.5 7.4-1.6z"/><path class="st8" d="M221.3 326.7l1.5 7 2.6-7.3-4.1.3z"/><path class="st7" d="M232.3 323.4l-9.9-3.5-9.5 3.8 10.4 5 9-5.3z"/><path class="st34" d="M226.6 323.8l-4.3-1.4-3 1.2 4.6 1.5 2.7-1.3z"/><path class="st33" d="M187.2 298l9.3-.9 8.3 1.9-10 1.5-7.6-2.5z"/><path class="st8" d="M197.4 292.4l-2.3 6.8-2-7.6 4.3.8z"/><path class="st7" d="M186.2 288l10.8-2.5 9.7 4.8-11.6 3.9-8.9-6.2z"/><path class="st34" d="M192.2 288.9l4.6-.9 3.1 1.5-5 1-2.7-1.6z"/><path class="st33" d="M166.6 327.2l8.2-.8 7.3 1.6-8.8 1.4-6.7-2.2z"/><path class="st8" d="M175.6 322.3l-2 5.9-1.7-6.6 3.7.7z"/><path class="st7" d="M165.8 318.4l9.5-2.2 8.5 4.2-10.2 3.4-7.8-5.4z"/><path class="st34" d="M171 319.2l4.1-.8 2.7 1.4-4.4.8-2.4-1.4z"/><path class="st33" d="M40.8 308.2l9-1 7.9 1.9-9.5 1.6-7.4-2.5z"/><path class="st8" d="M50.7 302.6l-2.3 6.8-1.8-7.6 4.1.8z"/><path class="st7" d="M39.9 298.1l10.4-2.5 9.3 4.8-11.2 3.9-8.5-6.2z"/><path class="st34" d="M45.6 299.1l4.5-1 3 1.5-4.9 1-2.6-1.5z"/><g><path class="st33" d="M31 330.3l-7.6-1.6-7 .8 8.1 2.2 6.5-1.4z"/><path class="st8" d="M23 324.8l1.4 5.8 2.2-6.1-3.6.3z"/><path class="st7" d="M32.7 322.1l-8.7-3-8.4 3.1 9.2 4.2 7.9-4.3z"/><path class="st34" d="M27.7 322.4l-3.8-1.2-2.7 1 4.1 1.2 2.4-1z"/></g><g><path class="st33" d="M133.2 337.4l-7.7-.9-6.9 1.5 8.2 1.4 6.4-2z"/><path class="st8" d="M124.7 332.7l1.9 5.6 1.7-6.2-3.6.6z"/><path class="st7" d="M134.1 329.1l-9-2.2-8.1 3.9 9.6 3.3 7.5-5z"/><path class="st34" d="M129.1 329.8l-3.8-.8-2.6 1.2 4.1.9 2.3-1.3z"/></g><g><path class="st33" d="M28.8 283.8l-7.7-.9-6.9 1.4 8.3 1.4 6.3-1.9z"/><path class="st8" d="M20.4 279l1.8 5.6 1.7-6.2-3.5.6z"/><path class="st7" d="M29.7 275.5l-8.9-2.2-8.1 3.9 9.6 3.3 7.4-5z"/><path class="st34" d="M24.7 276.2l-3.8-.9-2.6 1.3 4.2.8 2.2-1.2z"/></g><g><path class="st33" d="M149.8 291.7l-6.6-.8-6 1.3 7.1 1.2 5.5-1.7z"/><path class="st8" d="M142.5 287.6l1.6 4.8 1.5-5.3-3.1.5z"/><path class="st7" d="M150.6 284.5l-7.7-1.9-7 3.4 8.3 2.8 6.4-4.3z"/><path class="st34" d="M146.3 285.1l-3.3-.7-2.2 1.1 3.6.7 1.9-1.1z"/></g><g><path class="st33" d="M238.2 311.1l-6.2-1.4-5.7.8 6.6 1.8 5.3-1.2z"/><path class="st8" d="M231.7 306.3l1.1 5.1 1.9-5.3-3 .2z"/><path class="st7" d="M239.7 304l-7.2-2.6-6.9 2.7 7.6 3.7 6.5-3.8z"/><path class="st34" d="M235.5 304.2l-3-1-2.2.9 3.3 1 1.9-.9z"/></g><g><path class="st33" d="M296.2 291.6l-6.2-1.4-5.7.8 6.6 1.8 5.3-1.2z"/><path class="st8" d="M289.7 286.8l1.1 5 1.9-5.2-3 .2z"/><path class="st7" d="M297.7 284.4l-7.2-2.5-6.9 2.7 7.6 3.6 6.5-3.8z"/><path class="st34" d="M293.5 284.7l-3-1-2.2.9 3.3 1 1.9-.9z"/></g><g><path class="st33" d="M272.8 298.4l-7.1-1.6-6.5.9 7.5 2.1 6.1-1.4z"/><path class="st8" d="M265.4 292.7l1.2 6 2.2-6.3-3.4.3z"/><path class="st7" d="M274.5 289.9l-8.1-3.1-7.9 3.3 8.5 4.3 7.5-4.5z"/><path class="st34" d="M269.8 290.2l-3.5-1.2-2.5 1 3.7 1.3 2.3-1.1z"/></g><g><path class="st33" d="M295.2 342.6l-7-1.7-6.6 1 7.5 2.1 6.1-1.4z"/><path class="st8" d="M287.9 336.9l1.1 6 2.2-6.3-3.3.3z"/><path class="st7" d="M296.9 334l-8.1-3-7.9 3.3 8.6 4.3 7.4-4.6z"/><path class="st34" d="M292.2 334.4l-3.5-1.2-2.5 1 3.8 1.3 2.2-1.1z"/></g><g><path class="st33" d="M370.4 328.6l-8.6-1.9-7.9 1 9.1 2.6 7.4-1.7z"/><path class="st8" d="M361.5 322l1.4 6.9 2.6-7.3-4 .4z"/><path class="st7" d="M372.4 318.7l-9.8-3.6-9.6 3.8 10.4 5 9-5.2z"/><path class="st34" d="M366.7 319.1l-4.2-1.5-3.1 1.2 4.6 1.5 2.7-1.2z"/></g><g><path class="st33" d="M570.3 314.2l-7.8-1.7-7.2.8 8.3 2.2 6.7-1.3z"/><path class="st8" d="M562.1 308.4l1.4 6 2.3-6.2-3.7.2z"/><path class="st7" d="M572.1 305.7l-9-3.2-8.7 3.2 9.5 4.4 8.2-4.4z"/><path class="st34" d="M566.9 305.9l-3.9-1.2-2.7 1 4.2 1.3 2.4-1.1z"/></g><g><path class="st33" d="M599.8 288.1l9.3-1 8.3 1.9-9.9 1.6-7.7-2.5z"/><path class="st8" d="M610.1 282.5l-2.3 6.8-2-7.6 4.3.8z"/><path class="st7" d="M598.9 278l10.8-2.5 9.7 4.9-11.6 3.8-8.9-6.2z"/><path class="st34" d="M604.9 279l4.6-1 3.1 1.6-5 1-2.7-1.6z"/></g><g><path class="st33" d="M645.1 285.2l6.8-1.3 6.2.8-7.2 1.8-5.8-1.3z"/><path class="st8" d="M652.3 280.4l-1.3 5.1-1.9-5.4 3.2.3z"/><path class="st7" d="M643.7 277.9l7.8-2.6 7.4 2.9-8.2 3.6-7-3.9z"/><path class="st34" d="M648.2 278.2l3.3-1 2.4.9-3.6 1-2.1-.9z"/></g><g><path class="st33" d="M103.1 315.7l9-1 8 1.9-9.6 1.5-7.4-2.4z"/><path class="st8" d="M113 310l-2.2 6.8-1.9-7.6 4.1.8z"/><path class="st7" d="M102.2 305.5l10.4-2.5 9.3 4.9-11.1 3.9-8.6-6.3z"/><path class="st34" d="M108 306.5l4.4-1 3 1.6-4.8 1-2.6-1.6z"/></g><g><path class="st33" d="M69 320.5l-7.6-1.6-7.1.8 8.1 2.2 6.6-1.4z"/><path class="st8" d="M61 315l1.3 5.8 2.3-6.1-3.6.3z"/><path class="st7" d="M70.7 312.3l-8.8-3-8.4 3.1 9.3 4.2 7.9-4.3z"/><path class="st34" d="M65.6 312.6l-3.7-1.2-2.7 1 4.1 1.2 2.3-1z"/></g><g><path class="st33" d="M91.2 291.2l-7.8-.9-6.9 1.5 8.3 1.3 6.4-1.9z"/><path class="st8" d="M82.7 286.4l1.9 5.7 1.6-6.2-3.5.5z"/><path class="st7" d="M92.1 282.9l-9-2.2-8.1 3.9 9.6 3.3 7.5-5z"/><path class="st34" d="M87.1 283.6l-3.9-.8-2.6 1.2 4.2.9 2.3-1.3z"/></g><g><path class="st33" d="M450 311.8l9.3-1 8.3 1.9-10 1.5-7.6-2.4z"/><path class="st8" d="M460.2 306.2l-2.3 6.7-1.9-7.5 4.2.8z"/><path class="st7" d="M449 301.7l10.8-2.5 9.7 4.8-11.6 3.9-8.9-6.2z"/><path class="st34" d="M455 302.7l4.6-1 3.1 1.6-5 .9-2.7-1.5z"/></g><g><path class="st33" d="M454.3 339.8l-7.8-1.7-7.2.9 8.3 2.2 6.7-1.4z"/><path class="st8" d="M446.1 334.1l1.4 5.9 2.3-6.2-3.7.3z"/><path class="st7" d="M456.1 331.3l-9-3.1-8.7 3.2 9.5 4.4 8.2-4.5z"/><path class="st34" d="M450.9 331.6l-3.9-1.3-2.8 1.1 4.2 1.2 2.5-1z"/></g><g><path class="st33" d="M429.2 328.7l-7.8-1.7-7.3.9 8.4 2.2 6.7-1.4z"/><path class="st8" d="M421 323l1.4 6 2.3-6.3-3.7.3z"/><path class="st7" d="M431 320.2l-9-3.1-8.7 3.2 9.5 4.4 8.2-4.5z"/><path class="st34" d="M425.8 320.5l-3.9-1.2-2.8 1 4.2 1.3 2.5-1.1z"/></g><g><path class="st33" d="M118.8 278.1l-6.6-.8-6 1.3 7.1 1.2 5.5-1.7z"/><path class="st8" d="M111.5 274l1.6 4.8 1.5-5.3-3.1.5z"/><path class="st7" d="M119.6 270.9l-7.7-1.9-7 3.4 8.3 2.8 6.4-4.3z"/><path class="st34" d="M115.3 271.5l-3.3-.7-2.2 1.1 3.6.7 1.9-1.1z"/></g><g><path class="st33" d="M188.8 271.1l-6.6-.8-6 1.3 7.1 1.2 5.5-1.7z"/><path class="st8" d="M181.5 267l1.6 4.8 1.5-5.3-3.1.5z"/><path class="st7" d="M189.6 263.9l-7.7-1.9-7 3.4 8.3 2.8 6.4-4.3z"/><path class="st34" d="M185.3 264.5l-3.3-.7-2.2 1.1 3.6.7 1.9-1.1z"/></g><g><path class="st33" d="M729.1 279.1l-7.2-1.6-6.7.8 7.7 2.1 6.2-1.3z"/><path class="st8" d="M721.5 273.8l1.2 5.5 2.2-5.7-3.4.2z"/><path class="st7" d="M730.7 271.3l-8.3-2.9-8 3 8.8 4 7.5-4.1z"/><path class="st34" d="M725.9 271.5l-3.6-1.1-2.5.9 3.8 1.2 2.3-1z"/></g><g><path class="st33" d="M1029.1 279.1l-7.2-1.6-6.7.8 7.7 2.1 6.2-1.3z"/><path class="st8" d="M1021.5 273.8l1.2 5.5 2.2-5.7-3.4.2z"/><path class="st7" d="M1030.7 271.3l-8.3-2.9-8 3 8.8 4 7.5-4.1z"/><path class="st34" d="M1025.9 271.5l-3.6-1.1-2.5.9 3.8 1.2 2.3-1z"/></g><g><path class="st33" d="M1102.1 269.1l-7.2-1.6-6.7.8 7.7 2.1 6.2-1.3z"/><path class="st8" d="M1094.5 263.8l1.2 5.5 2.2-5.7-3.4.2z"/><path class="st7" d="M1103.7 261.3l-8.3-2.9-8 3 8.8 4 7.5-4.1z"/><path class="st34" d="M1098.9 261.5l-3.6-1.1-2.5.9 3.8 1.2 2.3-1z"/></g><g><path class="st33" d="M273.1 269.9l-5.4-.7-4.9 1.1 5.8.9 4.5-1.3z"/><path class="st8" d="M267.1 266.5l1.3 4 1.2-4.4-2.5.4z"/><path class="st7" d="M273.7 264l-6.3-1.5-5.7 2.7 6.8 2.4 5.2-3.6z"/><path class="st34" d="M270.2 264.5l-2.7-.5-1.8.8 2.9.6 1.6-.9z"/></g><g><path class="st33" d="M73.1 259.9l-5.4-.7-4.9 1.1 5.8.9 4.5-1.3z"/><path class="st8" d="M67.1 256.5l1.3 4 1.2-4.4-2.5.4z"/><path class="st7" d="M73.7 254l-6.3-1.5-5.7 2.7 6.8 2.4 5.2-3.6z"/><path class="st34" d="M70.2 254.5l-2.7-.5-1.8.8 2.9.6 1.6-.9z"/></g><g><path class="st33" d="M793.1 269.9l-5.4-.7-4.9 1.1 5.8.9 4.5-1.3z"/><path class="st8" d="M787.1 266.5l1.3 4 1.2-4.4-2.5.4z"/><path class="st7" d="M793.7 264l-6.3-1.5-5.7 2.7 6.8 2.4 5.2-3.6z"/><path class="st34" d="M790.2 264.5l-2.7-.5-1.8.8 2.9.6 1.6-.9z"/></g><g><path class="st33" d="M893.1 262.9l-5.4-.7-4.9 1.1 5.8.9 4.5-1.3z"/><path class="st8" d="M887.1 259.5l1.3 4 1.2-4.4-2.5.4z"/><path class="st7" d="M893.7 257l-6.3-1.5-5.7 2.7 6.8 2.4 5.2-3.6z"/><path class="st34" d="M890.2 257.5l-2.7-.5-1.8.8 2.9.6 1.6-.9z"/></g><g><path class="st33" d="M1023.2 311.2l-9.3-1-8.3 1.9 10 1.5 7.6-2.4z"/><path class="st8" d="M1013 305.6l2.3 6.8 1.9-7.6-4.2.8z"/><path class="st7" d="M1024.2 301.1l-10.8-2.5-9.7 4.9 11.6 3.8 8.9-6.2z"/><path class="st34" d="M1018.2 302.1l-4.7-1-3 1.6 5 1 2.7-1.6z"/></g><g><path class="st33" d="M688.5 311.1l9.3-1 8.3 1.9-10 1.6-7.6-2.5z"/><path class="st8" d="M698.8 305.5l-2.4 6.8-1.9-7.6 4.3.8z"/><path class="st7" d="M687.5 301l10.9-2.5 9.6 4.9-11.6 3.8-8.9-6.2z"/><path class="st34" d="M693.5 302l4.7-1 3.1 1.6-5.1 1-2.7-1.6z"/></g></g><g id="character"><path class="st35" d="M794.4 228.9l20.3-4.6 16.8-6.4 7.6 12.1 11.1 12.1-7.2 7.4-4.1 9.3 10.7 3 19.1 1.2-5 2.8-1.8 3.4-16.5 14-20.3 19.5-3.1 1.4-4.1 5.2-.8-7.7-3.1-5.9-10.4-39.6-9.2-27.2z"/><path class="st36" d="M764.3 193.6l12.7 5.7 18.6 3.4 2.1-10.1-1.1-10.3 8.7 1.5 7.5-1.3 5.9.2 7.1-1.3 11.2-2.5 12.7-8 4.5 12.3 11.5 21-4 7.6-4.6 19.9-2.7-19.8-4.8-12.3-3.6-2.4-6.4-.4-4.7 8.1-1.1 6.8-2 2.7-.3 3.5-16.7 3.8-20.4 7.2-16.1-15.2-18.1-13.9 3-2.7 1.1-3.5z"/><path class="st37" d="M772.4 64.9l4.3-.6 2.6-2.7 13-5 12.1-7.6 19 7.9 16.8 3.9 2.9 11.5 6.6 13.6 1.2 3.8 2.1 3.1.2 17.2 2.7 31.8 4.9 8.8 8.3 10.2-10.6 3.9-8.8 6.2-11.1 6.3-12.8 4.2-8.9 1.8-4.1-.7-10.5 1.1-5.7-1.3-5.1-1.6-6 1.4 5.9-9 5.7-12.6-5.3-11.9-7.7-11.1-11.7-5.6-14-4.7 10.3-26.6 7.1-28.7-.6-4.1-2.8-2.9z"/><path class="st38" d="M766.3 333l59.6-7.8 70 5.3-55.5 5.7-74.1-3.2z"/><path class="st37" d="M784.1 137.5l-25.7-10.3 17.4-55.3 6.8-3.5 6.9-3.3L800 61l7.9 11.9 1.7-.8 3.2 6.7-15.3 63.4-13.4-4.7z"/><path class="st39" d="M775.8 71.9l3.5-10.3L804.4 49 800 61l-10.5 4.1-6.9 3.3-6.8 3.5z"/><path class="st32" d="M804.4 49l35.8 11.8 9.5 25.1 3.3 6.9-10-3.5-10.1-3.4-10-3.5-10.2-3.6-4.8-5.9L800 61l4.4-12z"/><path class="st31" d="M812.7 78.8l9.9 3.5 10.3 3.6 10.1 3.4 10 3.5 2.9 49-39.9-56-3.3-7z"/><path class="st40" d="M789 86.1l-5.2 14.3-9.4-17 14.6 2.7zm3.5.7L805 96l-10.6 1.4-9.7 11.3 7.8-21.9zm20.2-8l-15.2 63.4 2.2 2.4 5.8.7 4-5 2.9-7.3 1.7-19.1-1.4-35.1z"/><path class="st41" d="M781.1 107.7l.9 3.8 2.7-2.8-3.6-1z"/><path class="st31" d="M792.5 86.8l11.7 5.1.8 4.1-12.5-9.2zm-3.5-.7l-13.4-4.9-1.2 2.2 14.6 2.7z"/><path class="st41" d="M805.5 145.3l-8.4 15.2-13-23 13.4 4.7 8 3.1z"/><path class="st42" d="M797.9 96.6c1.2.3 1.8 2 1.4 3.8-.5 1.8-1.8 3-3 2.7s-1.8-2-1.4-3.8c.5-1.8 1.8-3 3-2.7zm-19.2-7c1.2.3 1.8 2 1.4 3.8-.5 1.8-1.8 3-3 2.7s-1.8-2-1.4-3.8c.4-1.8 1.8-3 3-2.7z"/><path class="st43" d="M792.5 86.8l-7.8 21.9-3.6-1 7.9-21.6 3.5.7z"/><path class="st39" d="M816 85.8l9.8 95.6-13 1.1-.4-49.5.4-54.2 3.2 7z"/><path class="st32" d="M817.7 102.7l32 68.2 19.4-10.1-13.2-19-39.9-56 1.7 16.9zm-5.3 30.3l-15.3 27.5-11.6 21.6 27.3.4-.4-49.5z"/><path class="st31" d="M817.7 102.7l32 68.2-23.9 10.5-2.8-26.9-4.6-20.5-.7-31.3z"/><path class="st24" d="M769.2 113.7l10.5 7.3 13.8.5-14.9 3.6-9.4-11.4z"/><path class="st44" d="M769.2 113.7l4.3 1.6 6 1 3.9 1.3 4.5 2.6 5.6 1.3-13.8-.5-10.5-7.3z"/><path class="st45" d="M772.4 64.9l6.9-3.3 3.3 6.9-6.9 3.3-3.3-6.9z"/><path class="st22" d="M782.5 68.4l6.9-3.3 3.3 6.9-6.9 3.3-3.3-6.9z"/><path class="st45" d="M792.6 71.8l6.9-3.3 3.3 6.9-6.9 3.3-3.3-6.9z"/><path class="st22" d="M802.6 75.4l6.9-3.3 3.3 6.9-6.9 3.3-3.3-6.9z"/><path class="st45" d="M812.7 78.8l6.9-3.3 3.3 6.9-6.9 3.3-3.3-6.9z"/><path class="st22" d="M822.7 82.4l6.9-3.3 3.3 6.9-6.9 3.3-3.3-6.9z"/><path class="st45" d="M832.8 85.7l6.9-3.3 3.3 6.9-6.9 3.3-3.3-6.9z"/><path class="st22" d="M842.7 89.2l6.9-3.3 3.3 6.9-6.9 3.3-3.3-6.9z"/><path class="st44" d="M812.6 99.2l5.1 3.5 1.3 12.2-6.4-4.3V99.2z"/><path class="st24" d="M812.6 110.6l6.4 4.3.9 8.8-7.4-4.1.1-9z"/><path class="st44" d="M812.5 119.6l7.4 4.1 1 9.9-8.5-4.7.1-9.3z"/><path class="st24" d="M812.4 128.9l8.5 4.7 1.1 10.8-9.5-5.4-.1-10.1z"/><path class="st44" d="M812.5 139l9.5 5.4 1 10.1-10.5-5.8V139z"/><path class="st23" d="M796.6 182.3l-2.2 46.6 31.4-47.5-13 1.1-16.2-.2z"/><path class="st24" d="M795.6 202.7l-31.3-9.1-3 2.7-1.1 3.5 34.2 29.1 1.2-26.2z"/><path class="st37" d="M764.3 193.6l-5.1-5.1-6.3 4.7-6.8-11.1h-1.9l3.2 14.9 12.8 2.8 4.1-6.2z"/><path class="st41" d="M761.8 191l-14.4 6-2.7-6.8-.5-8.1h1.9l4.5 5.6 2.3 5.5 3-3.5 3.3-1.2 2.6 2.5z"/><path class="st44" d="M849.7 170.9l-15.9 40.8-29.3 2 21.3-32.3 23.9-10.5z"/><path class="st24" d="M804.5 213.7l29.3-2-2.3 6.2-37.1 11 10.1-15.2z"/><path class="st23" d="M849.7 170.9l16 33.3-26.1-7.4 10.1-25.9z"/><path class="st24" d="M849.6 199.6l7.5 32.1 8.6-27.5-16.1-4.6z"/><path class="st37" d="M857.1 231.7l5.1 1.2 8.4.7-9.8-13.8-3.7 11.9z"/><path class="st22" d="M831.5 217.9l18.7 24.2-55.8-13.2 37.1-11z"/><path class="st21" d="M850.2 242.1L814 295.7l-19.6-66.8 55.8 13.2z"/><path class="st45" d="M838.9 258.8l29.8 4.2-3.1 4.3-3.7 1.9-37.2 33.9-1.8 2.1-5 4.1-3.9-13.6 24.9-36.9z"/><path class="st37" d="M868.7 263l9.5-3.5 5.2 28.4-21.5-18.7 6.8-6.2z"/><path class="st40" d="M877.3 282.6l-2.1 12 8.2-6.7-6.1-5.3z"/><path class="st37" d="M824.7 303.1l10.9 8.1-10.8 21.1-6.9-23 6.8-6.2z"/><path class="st40" d="M824.8 332.3l-12.3-.2 10.2-6.9 2.1 7.1z"/><path class="st41" d="M868.7 263l-2.2 10.3-4.6-4.1 6.8-6.2zm-50.8 46.3l9.4-4.2-2.2-2.4-7.2 6.6z"/><path class="st40" d="M862.2 232.9l10.5-8.8 1.8 7-5.3 3.4-7-1.6z"/><path class="st21" d="M721.4 63.7l11.1-19.8 4.9 18.2-16 1.6z"/><path class="st22" d="M737.4 62.1l17.8-4.5-10.8 19.2-7-14.7z"/><path class="st23" d="M721.6 70.7l15.8-8.6-2.2 5.9-3.6 3.8-10-1.1z"/><path class="st24" d="M737.4 62.1l.5 17.8-6.3-8.1 5.8-9.7z"/><path class="st21" d="M884.4 41.1l-11.1-19.8-4.9 18.2 16 1.6z"/><path class="st22" d="M868.4 39.5L850.5 35l10.9 19.2 7-14.7z"/><path class="st23" d="M884.1 48.1l-15.7-8.6 2.9 6.8 2.9 2.9 9.9-1.1z"/><path class="st24" d="M868.4 39.5l-.5 17.8 6.3-8.1-5.8-9.7z"/><path class="st21" d="M892.7 181.9l3.6-22.4 10.9 15.4-14.5 7z"/><path class="st22" d="M907.2 174.9l15.2-10.3-3.6 21.7-11.6-11.4z"/><path class="st23" d="M895.3 188.4l11.9-13.5-.5 6.5-1.7 4.7-9.7 2.3z"/><path class="st24" d="M907.2 174.9l6.5 16.6-8.7-5.4 2.2-11.2z"/><path class="st44" d="M737.7 171.1h11v11h-11v-11z"/><path class="st23" d="M741.6 197.2l-.1 13.4h2.6l-.1-13.4h-2.4z"/><path class="st31" d="M743.2 171.1l-1.1-13.2 15.3 4.2-8.7 9h-5.5zm5.5 2.4l14.4-6.7 5.2 13.1-19.6-2.3v-4.1zm0 6.4l16.8 3.8-12.6 9.5-6.8-11.1h2.6v-2.2zm-4.5 2.2l3.2 14.9-13.2.2 6.1-15.1h3.9zm-6.5 0l-10.2 13.4-8.5-8.2 18.7-8.4v3.2zm0-5l-19.8 4.8-2-11.1 21.8 3.8v2.5zm0-4.3l-16.8-8.8 11.4-6.9 9.1 14h-3.7v1.7z"/><path class="st32" d="M737.7 176.6l5.5-5.5 5.5 5.5-5.5 5.5-5.5-5.5z"/></g></svg>