<svg xmlns="http://www.w3.org/2000/svg" width="800" height="600"><path d="M79,703L-89,712L231,709Z" fill="#6e7a81" stroke="#6e7a81" stroke-width="1.51"/><path d="M122,-107L360,-102L466,-112Z" fill="#b2c0c6" stroke="#b2c0c6" stroke-width="1.51"/><path d="M362,701L231,709L485,711Z" fill="#4d5f69" stroke="#4d5f69" stroke-width="1.51"/><path d="M466,-112L556,-103L657,-109Z" fill="#9cabb3" stroke="#9cabb3" stroke-width="1.51"/><path d="M554,697L533,708L707,675Z" fill="#3d5058" stroke="#3d5058" stroke-width="1.51"/><path d="M533,708L485,711L794,696Z" fill="#3c4e57" stroke="#3c4e57" stroke-width="1.51"/><path d="M707,675L533,708L794,696Z" fill="#384952" stroke="#384952" stroke-width="1.51"/><path d="M795,232L813,258L820,166Z" fill="#5a6d76" stroke="#5a6d76" stroke-width="1.51"/><path d="M837,26L866,50L875,-26Z" fill="#738086" stroke="#738086" stroke-width="1.51"/><path d="M870,438L857,516L878,578Z" fill="#3a4c54" stroke="#3a4c54" stroke-width="1.51"/><path d="M864,627L872,676L878,578Z" fill="#314047" stroke="#314047" stroke-width="1.51"/><path d="M875,-26L866,50L882,105Z" fill="#6e7b82" stroke="#6e7b82" stroke-width="1.51"/><path d="M834,338L872,386L890,325Z" fill="#465a64" stroke="#465a64" stroke-width="1.51"/><path d="M870,438L878,578L890,325Z" fill="#3e515a" stroke="#3e515a" stroke-width="1.51"/><path d="M872,386L870,438L890,325Z" fill="#425760" stroke="#425760" stroke-width="1.51"/><path d="M813,258L860,277L898,186Z" fill="#53666f" stroke="#53666f" stroke-width="1.51"/><path d="M820,166L813,258L898,186Z" fill="#596b74" stroke="#596b74" stroke-width="1.51"/><path d="M878,140L820,166L898,186Z" fill="#5c6c75" stroke="#5c6c75" stroke-width="1.51"/><path d="M875,-26L882,105L898,186Z" fill="#66747b" stroke="#66747b" stroke-width="1.51"/><path d="M876,-71L875,-26L898,186Z" fill="#6f7c82" stroke="#6f7c82" stroke-width="1.51"/><path d="M860,277L890,325L898,186Z" fill="#4e616a" stroke="#4e616a" stroke-width="1.51"/><path d="M882,105L878,140L898,186Z" fill="#5d6c75" stroke="#5d6c75" stroke-width="1.51"/><path d="M816,490L857,516L870,438Z" fill="#3e515a" stroke="#3e515a" stroke-width="1.51"/><path d="M845,415L870,438L872,386Z" fill="#415660" stroke="#415660" stroke-width="1.51"/><path d="M842,614L864,627L878,578Z" fill="#33434b" stroke="#33434b" stroke-width="1.51"/><path d="M866,50L825,95L882,105Z" fill="#69787f" stroke="#69787f" stroke-width="1.51"/><path d="M860,277L834,338L890,325Z" fill="#4a5e68" stroke="#4a5e68" stroke-width="1.51"/><path d="M833,-31L837,26L875,-26Z" fill="#78848a" stroke="#78848a" stroke-width="1.51"/><path d="M833,-31L875,-26L876,-71Z" fill="#7c878d" stroke="#7c878d" stroke-width="1.51"/><path d="M857,516L826,584L878,578Z" fill="#374850" stroke="#374850" stroke-width="1.51"/><path d="M825,95L878,140L882,105Z" fill="#64737b" stroke="#64737b" stroke-width="1.51"/><path d="M825,95L820,166L878,140Z" fill="#62737b" stroke="#62737b" stroke-width="1.51"/><path d="M826,584L842,614L878,578Z" fill="#35454d" stroke="#35454d" stroke-width="1.51"/><path d="M796,-94L833,-31L876,-71Z" fill="#818c92" stroke="#818c92" stroke-width="1.51"/><path d="M864,627L842,614L872,676Z" fill="#313f47" stroke="#313f47" stroke-width="1.51"/><path d="M845,415L816,490L870,438Z" fill="#41545e" stroke="#41545e" stroke-width="1.51"/><path d="M834,338L845,415L872,386Z" fill="#455a64" stroke="#455a64" stroke-width="1.51"/><path d="M842,614L780,667L872,676Z" fill="#324048" stroke="#324048" stroke-width="1.51"/><path d="M780,667L794,696L872,676Z" fill="#303f46" stroke="#303f46" stroke-width="1.51"/><path d="M795,475L816,490L845,415Z" fill="#42565f" stroke="#42565f" stroke-width="1.51"/><path d="M785,556L826,584L857,516Z" fill="#3a4c55" stroke="#3a4c55" stroke-width="1.51"/><path d="M837,26L825,95L866,50Z" fill="#6e7c84" stroke="#6e7c84" stroke-width="1.51"/><path d="M813,258L834,338L860,277Z" fill="#4e636d" stroke="#4e636d" stroke-width="1.51"/><path d="M834,338L758,406L845,415Z" fill="#485d67" stroke="#485d67" stroke-width="1.51"/><path d="M816,490L785,556L857,516Z" fill="#3d5058" stroke="#3d5058" stroke-width="1.51"/><path d="M774,515L785,556L816,490Z" fill="#3f525b" stroke="#3f525b" stroke-width="1.51"/><path d="M756,43L756,71L825,95Z" fill="#728189" stroke="#728189" stroke-width="1.51"/><path d="M753,354L758,406L834,338Z" fill="#4b616c" stroke="#4b616c" stroke-width="1.51"/><path d="M756,43L825,95L837,26Z" fill="#728088" stroke="#728088" stroke-width="1.51"/><path d="M758,406L777,450L845,415Z" fill="#465c66" stroke="#465c66" stroke-width="1.51"/><path d="M777,450L795,475L845,415Z" fill="#445962" stroke="#445962" stroke-width="1.51"/><path d="M813,258L739,285L834,338Z" fill="#526771" stroke="#526771" stroke-width="1.51"/><path d="M833,-31L756,43L837,26Z" fill="#78868d" stroke="#78868d" stroke-width="1.51"/><path d="M826,584L780,667L842,614Z" fill="#36454d" stroke="#36454d" stroke-width="1.51"/><path d="M28,702L-89,712L79,703Z" fill="#778187" stroke="#778187" stroke-width="1.51"/><path d="M770,194L795,232L820,166Z" fill="#5d707a" stroke="#5d707a" stroke-width="1.51"/><path d="M750,649L780,667L826,584Z" fill="#37474f" stroke="#37474f" stroke-width="1.51"/><path d="M796,-94L748,-52L833,-31Z" fill="#859096" stroke="#859096" stroke-width="1.51"/><path d="M748,-52L756,43L833,-31Z" fill="#7f8c93" stroke="#7f8c93" stroke-width="1.51"/><path d="M739,285L753,354L834,338Z" fill="#4f6570" stroke="#4f6570" stroke-width="1.51"/><path d="M757,173L820,166L825,95Z" fill="#64757e" stroke="#64757e" stroke-width="1.51"/><path d="M756,71L757,173L825,95Z" fill="#6b7c84" stroke="#6b7c84" stroke-width="1.51"/><path d="M785,556L750,649L826,584Z" fill="#394b53" stroke="#394b53" stroke-width="1.51"/><path d="M626,668L554,697L707,675Z" fill="#3c4f58" stroke="#3c4f58" stroke-width="1.51"/><path d="M757,173L770,194L820,166Z" fill="#61737d" stroke="#61737d" stroke-width="1.51"/><path d="M795,475L774,515L816,490Z" fill="#41545e" stroke="#41545e" stroke-width="1.51"/><path d="M795,232L739,285L813,258Z" fill="#576b75" stroke="#576b75" stroke-width="1.51"/><path d="M707,583L750,649L785,556Z" fill="#3d4e57" stroke="#3d4e57" stroke-width="1.51"/><path d="M719,-104L742,-79L796,-94Z" fill="#8c979e" stroke="#8c979e" stroke-width="1.51"/><path d="M742,-79L748,-52L796,-94Z" fill="#89959b" stroke="#89959b" stroke-width="1.51"/><path d="M770,194L739,285L795,232Z" fill="#5a6e78" stroke="#5a6e78" stroke-width="1.51"/><path d="M777,450L774,515L795,475Z" fill="#435761" stroke="#435761" stroke-width="1.51"/><path d="M780,667L707,675L794,696Z" fill="#34444c" stroke="#34444c" stroke-width="1.51"/><path d="M756,71L680,137L757,173Z" fill="#6c7e87" stroke="#6c7e87" stroke-width="1.51"/><path d="M685,220L739,285L770,194Z" fill="#5d727d" stroke="#5d727d" stroke-width="1.51"/><path d="M685,490L774,515L777,450Z" fill="#455a63" stroke="#455a63" stroke-width="1.51"/><path d="M750,649L707,675L780,667Z" fill="#36474f" stroke="#36474f" stroke-width="1.51"/><path d="M774,515L707,583L785,556Z" fill="#3f525b" stroke="#3f525b" stroke-width="1.51"/><path d="M748,-52L675,16L756,43Z" fill="#808f96" stroke="#808f96" stroke-width="1.51"/><path d="M694,440L685,490L777,450Z" fill="#495f69" stroke="#495f69" stroke-width="1.51"/><path d="M698,-50L675,16L748,-52Z" fill="#86949c" stroke="#86949c" stroke-width="1.51"/><path d="M699,69L680,137L756,71Z" fill="#72848e" stroke="#72848e" stroke-width="1.51"/><path d="M758,406L694,440L777,450Z" fill="#495f6a" stroke="#495f6a" stroke-width="1.51"/><path d="M707,583L698,627L750,649Z" fill="#3c4e57" stroke="#3c4e57" stroke-width="1.51"/><path d="M685,490L707,583L774,515Z" fill="#435761" stroke="#435761" stroke-width="1.51"/><path d="M757,173L685,220L770,194Z" fill="#61757f" stroke="#61757f" stroke-width="1.51"/><path d="M739,285L678,313L753,354Z" fill="#546b75" stroke="#546b75" stroke-width="1.51"/><path d="M678,313L708,368L753,354Z" fill="#506974" stroke="#506974" stroke-width="1.51"/><path d="M699,69L756,71L756,43Z" fill="#76868e" stroke="#76868e" stroke-width="1.51"/><path d="M675,16L699,69L756,43Z" fill="#7b8b93" stroke="#7b8b93" stroke-width="1.51"/><path d="M753,354L708,368L758,406Z" fill="#4d646f" stroke="#4d646f" stroke-width="1.51"/><path d="M708,368L694,440L758,406Z" fill="#4c646e" stroke="#4c646e" stroke-width="1.51"/><path d="M680,137L685,220L757,173Z" fill="#667a84" stroke="#667a84" stroke-width="1.51"/><path d="M685,490L662,556L707,583Z" fill="#455963" stroke="#455963" stroke-width="1.51"/><path d="M685,220L678,284L739,285Z" fill="#5c727d" stroke="#5c727d" stroke-width="1.51"/><path d="M698,627L707,675L750,649Z" fill="#3a4b53" stroke="#3a4b53" stroke-width="1.51"/><path d="M742,-79L698,-50L748,-52Z" fill="#89969d" stroke="#89969d" stroke-width="1.51"/><path d="M719,-104L698,-50L742,-79Z" fill="#8c999f" stroke="#8c999f" stroke-width="1.51"/><path d="M678,284L678,313L739,285Z" fill="#586f7b" stroke="#586f7b" stroke-width="1.51"/><path d="M649,90L680,137L699,69Z" fill="#748790" stroke="#748790" stroke-width="1.51"/><path d="M661,425L694,440L708,368Z" fill="#4e6671" stroke="#4e6671" stroke-width="1.51"/><path d="M657,-109L698,-50L719,-104Z" fill="#909da3" stroke="#909da3" stroke-width="1.51"/><path d="M122,-107L284,-90L360,-102Z" fill="#b8c4cb" stroke="#b8c4cb" stroke-width="1.51"/><path d="M647,350L628,383L661,425Z" fill="#526c77" stroke="#526c77" stroke-width="1.51"/><path d="M646,251L678,284L685,220Z" fill="#5f7581" stroke="#5f7581" stroke-width="1.51"/><path d="M680,137L647,140L685,220Z" fill="#6a7f89" stroke="#6a7f89" stroke-width="1.51"/><path d="M647,140L651,222L685,220Z" fill="#677d87" stroke="#677d87" stroke-width="1.51"/><path d="M675,16L662,30L699,69Z" fill="#7e8f97" stroke="#7e8f97" stroke-width="1.51"/><path d="M698,627L648,642L707,675Z" fill="#3c4e57" stroke="#3c4e57" stroke-width="1.51"/><path d="M662,556L698,627L707,583Z" fill="#40545d" stroke="#40545d" stroke-width="1.51"/><path d="M678,313L647,350L708,368Z" fill="#536c78" stroke="#536c78" stroke-width="1.51"/><path d="M647,350L661,425L708,368Z" fill="#516975" stroke="#516975" stroke-width="1.51"/><path d="M648,642L626,668L707,675Z" fill="#3c4e57" stroke="#3c4e57" stroke-width="1.51"/><path d="M122,-107L174,-95L284,-90Z" fill="#bfcad0" stroke="#bfcad0" stroke-width="1.51"/><path d="M661,425L685,490L694,440Z" fill="#4b636e" stroke="#4b636e" stroke-width="1.51"/><path d="M623,-21L675,16L698,-50Z" fill="#87979f" stroke="#87979f" stroke-width="1.51"/><path d="M657,-109L623,-21L698,-50Z" fill="#8e9da4" stroke="#8e9da4" stroke-width="1.51"/><path d="M662,556L648,642L698,627Z" fill="#40535d" stroke="#40535d" stroke-width="1.51"/><path d="M662,30L649,90L699,69Z" fill="#7a8c95" stroke="#7a8c95" stroke-width="1.51"/><path d="M651,222L646,251L685,220Z" fill="#627983" stroke="#627983" stroke-width="1.51"/><path d="M619,508L662,556L685,490Z" fill="#485e69" stroke="#485e69" stroke-width="1.51"/><path d="M649,90L647,140L680,137Z" fill="#71858f" stroke="#71858f" stroke-width="1.51"/><path d="M661,425L619,508L685,490Z" fill="#4b636d" stroke="#4b636d" stroke-width="1.51"/><path d="M595,439L619,508L661,425Z" fill="#4f6772" stroke="#4f6772" stroke-width="1.51"/><path d="M590,582L648,642L662,556Z" fill="#445862" stroke="#445862" stroke-width="1.51"/><path d="M603,319L678,313L678,284Z" fill="#5a727e" stroke="#5a727e" stroke-width="1.51"/><path d="M623,-21L662,30L675,16Z" fill="#84959d" stroke="#84959d" stroke-width="1.51"/><path d="M603,319L647,350L678,313Z" fill="#57717d" stroke="#57717d" stroke-width="1.51"/><path d="M646,251L603,319L678,284Z" fill="#5d7581" stroke="#5d7581" stroke-width="1.51"/><path d="M647,140L589,195L651,222Z" fill="#6a808b" stroke="#6a808b" stroke-width="1.51"/><path d="M590,582L601,635L648,642Z" fill="#435761" stroke="#435761" stroke-width="1.51"/><path d="M598,8L575,90L649,90Z" fill="#7f929b" stroke="#7f929b" stroke-width="1.51"/><path d="M556,-103L623,-21L657,-109Z" fill="#94a4ab" stroke="#94a4ab" stroke-width="1.51"/><path d="M628,383L603,404L661,425Z" fill="#526b77" stroke="#526b77" stroke-width="1.51"/><path d="M619,508L584,533L662,556Z" fill="#495f6a" stroke="#495f6a" stroke-width="1.51"/><path d="M584,533L590,582L662,556Z" fill="#475e68" stroke="#475e68" stroke-width="1.51"/><path d="M598,8L649,90L662,30Z" fill="#80929b" stroke="#80929b" stroke-width="1.51"/><path d="M623,-21L598,8L662,30Z" fill="#8698a0" stroke="#8698a0" stroke-width="1.51"/><path d="M603,404L595,439L661,425Z" fill="#516b76" stroke="#516b76" stroke-width="1.51"/><path d="M566,283L603,319L646,251Z" fill="#5f7984" stroke="#5f7984" stroke-width="1.51"/><path d="M575,90L647,140L649,90Z" fill="#778a94" stroke="#778a94" stroke-width="1.51"/><path d="M589,195L646,251L651,222Z" fill="#667d88" stroke="#667d88" stroke-width="1.51"/><path d="M575,90L555,135L647,140Z" fill="#768c96" stroke="#768c96" stroke-width="1.51"/><path d="M601,635L626,668L648,642Z" fill="#40535c" stroke="#40535c" stroke-width="1.51"/><path d="M603,319L628,383L647,350Z" fill="#56707c" stroke="#56707c" stroke-width="1.51"/><path d="M555,135L589,195L647,140Z" fill="#708691" stroke="#708691" stroke-width="1.51"/><path d="M589,195L566,283L646,251Z" fill="#657d89" stroke="#657d89" stroke-width="1.51"/><path d="M545,216L566,283L589,195Z" fill="#69818d" stroke="#69818d" stroke-width="1.51"/><path d="M556,-103L560,-20L623,-21Z" fill="#93a3ab" stroke="#93a3ab" stroke-width="1.51"/><path d="M603,319L603,404L628,383Z" fill="#55707c" stroke="#55707c" stroke-width="1.51"/><path d="M538,388L603,404L603,319Z" fill="#57727f" stroke="#57727f" stroke-width="1.51"/><path d="M601,635L554,697L626,668Z" fill="#40545c" stroke="#40545c" stroke-width="1.51"/><path d="M523,489L584,533L595,439Z" fill="#506974" stroke="#506974" stroke-width="1.51"/><path d="M595,439L584,533L619,508Z" fill="#4d6570" stroke="#4d6570" stroke-width="1.51"/><path d="M560,-20L598,8L623,-21Z" fill="#8c9da5" stroke="#8c9da5" stroke-width="1.51"/><path d="M556,-103L525,-71L560,-20Z" fill="#97a7b0" stroke="#97a7b0" stroke-width="1.51"/><path d="M533,439L523,489L595,439Z" fill="#536e79" stroke="#536e79" stroke-width="1.51"/><path d="M509,54L531,79L598,8Z" fill="#8699a3" stroke="#8699a3" stroke-width="1.51"/><path d="M531,79L575,90L598,8Z" fill="#8396a0" stroke="#8396a0" stroke-width="1.51"/><path d="M590,582L520,626L601,635Z" fill="#465b66" stroke="#465b66" stroke-width="1.51"/><path d="M520,626L554,697L601,635Z" fill="#435861" stroke="#435861" stroke-width="1.51"/><path d="M538,388L595,439L603,404Z" fill="#556f7b" stroke="#556f7b" stroke-width="1.51"/><path d="M566,283L503,324L603,319Z" fill="#5f7a87" stroke="#5f7a87" stroke-width="1.51"/><path d="M503,324L538,388L603,319Z" fill="#5b7784" stroke="#5b7784" stroke-width="1.51"/><path d="M538,388L533,439L595,439Z" fill="#56707c" stroke="#56707c" stroke-width="1.51"/><path d="M560,-20L509,54L598,8Z" fill="#8a9da6" stroke="#8a9da6" stroke-width="1.51"/><path d="M520,588L520,626L590,582Z" fill="#495f69" stroke="#495f69" stroke-width="1.51"/><path d="M555,135L526,160L589,195Z" fill="#728994" stroke="#728994" stroke-width="1.51"/><path d="M584,533L520,588L590,582Z" fill="#4a616b" stroke="#4a616b" stroke-width="1.51"/><path d="M174,-95L215,-89L284,-90Z" fill="#bac6cd" stroke="#bac6cd" stroke-width="1.51"/><path d="M526,160L545,216L589,195Z" fill="#6f8692" stroke="#6f8692" stroke-width="1.51"/><path d="M523,489L520,588L584,533Z" fill="#4d6570" stroke="#4d6570" stroke-width="1.51"/><path d="M531,-25L509,54L560,-20Z" fill="#8da0a9" stroke="#8da0a9" stroke-width="1.51"/><path d="M525,-71L531,-25L560,-20Z" fill="#94a5ae" stroke="#94a5ae" stroke-width="1.51"/><path d="M545,216L503,284L566,283Z" fill="#66808d" stroke="#66808d" stroke-width="1.51"/><path d="M531,79L555,135L575,90Z" fill="#7c919b" stroke="#7c919b" stroke-width="1.51"/><path d="M520,626L533,708L554,697Z" fill="#425760" stroke="#425760" stroke-width="1.51"/><path d="M503,284L503,324L566,283Z" fill="#637d8a" stroke="#637d8a" stroke-width="1.51"/><path d="M531,79L526,160L555,135Z" fill="#798f9b" stroke="#798f9b" stroke-width="1.51"/><path d="M466,-112L525,-71L556,-103Z" fill="#9dadb5" stroke="#9dadb5" stroke-width="1.51"/><path d="M360,-102L380,-98L466,-112Z" fill="#a8b7bf" stroke="#a8b7bf" stroke-width="1.51"/><path d="M451,569L520,588L523,489Z" fill="#4f6772" stroke="#4f6772" stroke-width="1.51"/><path d="M441,523L451,569L523,489Z" fill="#526b77" stroke="#526b77" stroke-width="1.51"/><path d="M475,169L526,160L531,79Z" fill="#79909b" stroke="#79909b" stroke-width="1.51"/><path d="M520,626L485,711L533,708Z" fill="#435761" stroke="#435761" stroke-width="1.51"/><path d="M449,261L503,284L545,216Z" fill="#698390" stroke="#698390" stroke-width="1.51"/><path d="M475,169L449,261L545,216Z" fill="#6f8894" stroke="#6f8894" stroke-width="1.51"/><path d="M526,160L475,169L545,216Z" fill="#728a96" stroke="#728a96" stroke-width="1.51"/><path d="M470,64L475,169L531,79Z" fill="#7f95a1" stroke="#7f95a1" stroke-width="1.51"/><path d="M447,40L509,54L531,-25Z" fill="#8ca0aa" stroke="#8ca0aa" stroke-width="1.51"/><path d="M503,324L459,330L538,388Z" fill="#5d7a87" stroke="#5d7a87" stroke-width="1.51"/><path d="M459,330L447,413L538,388Z" fill="#5d7986" stroke="#5d7986" stroke-width="1.51"/><path d="M447,413L533,439L538,388Z" fill="#597481" stroke="#597481" stroke-width="1.51"/><path d="M434,203L449,261L475,169Z" fill="#728b98" stroke="#728b98" stroke-width="1.51"/><path d="M450,-41L447,40L531,-25Z" fill="#93a5af" stroke="#93a5af" stroke-width="1.51"/><path d="M525,-71L450,-41L531,-25Z" fill="#97a9b1" stroke="#97a9b1" stroke-width="1.51"/><path d="M439,466L523,489L533,439Z" fill="#56707c" stroke="#56707c" stroke-width="1.51"/><path d="M447,413L439,466L533,439Z" fill="#597481" stroke="#597481" stroke-width="1.51"/><path d="M509,54L470,64L531,79Z" fill="#859aa4" stroke="#859aa4" stroke-width="1.51"/><path d="M434,614L485,711L520,626Z" fill="#485d68" stroke="#485d68" stroke-width="1.51"/><path d="M466,-112L450,-41L525,-71Z" fill="#9caeb6" stroke="#9caeb6" stroke-width="1.51"/><path d="M434,614L520,626L520,588Z" fill="#4b616c" stroke="#4b616c" stroke-width="1.51"/><path d="M451,569L434,614L520,588Z" fill="#4d646f" stroke="#4d646f" stroke-width="1.51"/><path d="M439,466L441,523L523,489Z" fill="#556f7b" stroke="#556f7b" stroke-width="1.51"/><path d="M470,64L423,149L475,169Z" fill="#7d95a0" stroke="#7d95a0" stroke-width="1.51"/><path d="M503,284L459,330L503,324Z" fill="#637e8b" stroke="#637e8b" stroke-width="1.51"/><path d="M447,40L470,64L509,54Z" fill="#899ea7" stroke="#899ea7" stroke-width="1.51"/><path d="M434,614L393,676L485,711Z" fill="#495e68" stroke="#495e68" stroke-width="1.51"/><path d="M449,261L459,330L503,284Z" fill="#66818f" stroke="#66818f" stroke-width="1.51"/><path d="M419,341L447,413L459,330Z" fill="#607d8a" stroke="#607d8a" stroke-width="1.51"/><path d="M392,102L423,149L470,64Z" fill="#849aa5" stroke="#849aa5" stroke-width="1.51"/><path d="M393,676L362,701L485,711Z" fill="#485c66" stroke="#485c66" stroke-width="1.51"/><path d="M405,-28L447,40L450,-41Z" fill="#96a9b2" stroke="#96a9b2" stroke-width="1.51"/><path d="M380,-98L450,-41L466,-112Z" fill="#a2b2bb" stroke="#a2b2bb" stroke-width="1.51"/><path d="M423,149L434,203L475,169Z" fill="#77909c" stroke="#77909c" stroke-width="1.51"/><path d="M449,261L396,286L459,330Z" fill="#698491" stroke="#698491" stroke-width="1.51"/><path d="M447,40L392,102L470,64Z" fill="#899ea9" stroke="#899ea9" stroke-width="1.51"/><path d="M396,286L419,341L459,330Z" fill="#678290" stroke="#678290" stroke-width="1.51"/><path d="M391,45L392,102L447,40Z" fill="#8da2ac" stroke="#8da2ac" stroke-width="1.51"/><path d="M419,341L385,398L447,413Z" fill="#617d8a" stroke="#617d8a" stroke-width="1.51"/><path d="M401,442L439,466L447,413Z" fill="#5d7884" stroke="#5d7884" stroke-width="1.51"/><path d="M434,203L390,235L449,261Z" fill="#728b98" stroke="#728b98" stroke-width="1.51"/><path d="M380,-98L405,-28L450,-41Z" fill="#a0b0b9" stroke="#a0b0b9" stroke-width="1.51"/><path d="M441,523L417,526L451,569Z" fill="#546c78" stroke="#546c78" stroke-width="1.51"/><path d="M-97,-70L-4,-74L122,-107Z" fill="#d7dee2" stroke="#d7dee2" stroke-width="1.51"/><path d="M397,576L405,607L434,614Z" fill="#516873" stroke="#516873" stroke-width="1.51"/><path d="M439,466L417,526L441,523Z" fill="#57707d" stroke="#57707d" stroke-width="1.51"/><path d="M405,-28L391,45L447,40Z" fill="#94a7b0" stroke="#94a7b0" stroke-width="1.51"/><path d="M397,576L434,614L451,569Z" fill="#516873" stroke="#516873" stroke-width="1.51"/><path d="M417,526L397,576L451,569Z" fill="#546c77" stroke="#546c77" stroke-width="1.51"/><path d="M390,235L396,286L449,261Z" fill="#708996" stroke="#708996" stroke-width="1.51"/><path d="M405,607L393,676L434,614Z" fill="#4f656f" stroke="#4f656f" stroke-width="1.51"/><path d="M385,398L401,442L447,413Z" fill="#607b88" stroke="#607b88" stroke-width="1.51"/><path d="M401,442L417,526L439,466Z" fill="#5b7481" stroke="#5b7481" stroke-width="1.51"/><path d="M423,149L361,171L434,203Z" fill="#7b939f" stroke="#7b939f" stroke-width="1.51"/><path d="M361,171L390,235L434,203Z" fill="#79919d" stroke="#79919d" stroke-width="1.51"/><path d="M353,9L391,45L405,-28Z" fill="#99abb4" stroke="#99abb4" stroke-width="1.51"/><path d="M401,442L320,510L417,526Z" fill="#5d7682" stroke="#5d7682" stroke-width="1.51"/><path d="M396,286L356,314L419,341Z" fill="#6b8693" stroke="#6b8693" stroke-width="1.51"/><path d="M392,102L361,171L423,149Z" fill="#8298a4" stroke="#8298a4" stroke-width="1.51"/><path d="M356,112L361,171L392,102Z" fill="#869ca7" stroke="#869ca7" stroke-width="1.51"/><path d="M361,608L393,676L405,607Z" fill="#526771" stroke="#526771" stroke-width="1.51"/><path d="M356,314L385,398L419,341Z" fill="#67828f" stroke="#67828f" stroke-width="1.51"/><path d="M356,-19L353,9L405,-28Z" fill="#9dafb8" stroke="#9dafb8" stroke-width="1.51"/><path d="M320,510L397,576L417,526Z" fill="#5a717d" stroke="#5a717d" stroke-width="1.51"/><path d="M361,171L339,194L390,235Z" fill="#7d949f" stroke="#7d949f" stroke-width="1.51"/><path d="M320,510L351,591L397,576Z" fill="#5a717b" stroke="#5a717b" stroke-width="1.51"/><path d="M319,436L320,510L401,442Z" fill="#637c88" stroke="#637c88" stroke-width="1.51"/><path d="M397,576L361,608L405,607Z" fill="#546a75" stroke="#546a75" stroke-width="1.51"/><path d="M380,-98L356,-19L405,-28Z" fill="#a2b3bb" stroke="#a2b3bb" stroke-width="1.51"/><path d="M360,-102L356,-19L380,-98Z" fill="#a7b7bf" stroke="#a7b7bf" stroke-width="1.51"/><path d="M391,45L356,112L392,102Z" fill="#8ca1ab" stroke="#8ca1ab" stroke-width="1.51"/><path d="M390,235L336,261L396,286Z" fill="#748c99" stroke="#748c99" stroke-width="1.51"/><path d="M385,398L336,413L401,442Z" fill="#647e8a" stroke="#647e8a" stroke-width="1.51"/><path d="M336,413L319,436L401,442Z" fill="#657f8b" stroke="#657f8b" stroke-width="1.51"/><path d="M356,314L304,381L385,398Z" fill="#6a8491" stroke="#6a8491" stroke-width="1.51"/><path d="M361,608L362,701L393,676Z" fill="#50646e" stroke="#50646e" stroke-width="1.51"/><path d="M351,591L361,608L397,576Z" fill="#566c77" stroke="#566c77" stroke-width="1.51"/><path d="M336,261L356,314L396,286Z" fill="#728b97" stroke="#728b97" stroke-width="1.51"/><path d="M304,381L336,413L385,398Z" fill="#68828f" stroke="#68828f" stroke-width="1.51"/><path d="M300,73L356,112L391,45Z" fill="#92a5af" stroke="#92a5af" stroke-width="1.51"/><path d="M353,9L300,73L391,45Z" fill="#97aab3" stroke="#97aab3" stroke-width="1.51"/><path d="M339,194L336,261L390,235Z" fill="#7a919d" stroke="#7a919d" stroke-width="1.51"/><path d="M259,686L231,709L362,701Z" fill="#55666f" stroke="#55666f" stroke-width="1.51"/><path d="M361,608L270,643L362,701Z" fill="#566872" stroke="#566872" stroke-width="1.51"/><path d="M320,510L283,582L351,591Z" fill="#5e737e" stroke="#5e737e" stroke-width="1.51"/><path d="M298,6L300,73L353,9Z" fill="#9daeb7" stroke="#9daeb7" stroke-width="1.51"/><path d="M284,-90L298,6L356,-19Z" fill="#a7b7bf" stroke="#a7b7bf" stroke-width="1.51"/><path d="M282,321L304,381L356,314Z" fill="#708a96" stroke="#708a96" stroke-width="1.51"/><path d="M284,-90L356,-19L360,-102Z" fill="#abbac1" stroke="#abbac1" stroke-width="1.51"/><path d="M356,112L294,158L361,171Z" fill="#869ca7" stroke="#869ca7" stroke-width="1.51"/><path d="M294,158L339,194L361,171Z" fill="#8399a4" stroke="#8399a4" stroke-width="1.51"/><path d="M351,591L270,643L361,608Z" fill="#596d77" stroke="#596d77" stroke-width="1.51"/><path d="M270,643L259,686L362,701Z" fill="#566871" stroke="#566871" stroke-width="1.51"/><path d="M283,582L270,643L351,591Z" fill="#5c707a" stroke="#5c707a" stroke-width="1.51"/><path d="M284,231L336,261L339,194Z" fill="#7d94a0" stroke="#7d94a0" stroke-width="1.51"/><path d="M298,6L353,9L356,-19Z" fill="#a0b0b9" stroke="#a0b0b9" stroke-width="1.51"/><path d="M336,261L282,321L356,314Z" fill="#748d99" stroke="#748d99" stroke-width="1.51"/><path d="M300,73L294,158L356,112Z" fill="#8fa3ac" stroke="#8fa3ac" stroke-width="1.51"/><path d="M284,-90L256,-9L298,6Z" fill="#abbac1" stroke="#abbac1" stroke-width="1.51"/><path d="M319,436L305,431L320,510Z" fill="#677f8b" stroke="#677f8b" stroke-width="1.51"/><path d="M264,275L282,321L336,261Z" fill="#79919d" stroke="#79919d" stroke-width="1.51"/><path d="M294,158L284,231L339,194Z" fill="#839aa4" stroke="#839aa4" stroke-width="1.51"/><path d="M305,431L319,436L336,413Z" fill="#69828e" stroke="#69828e" stroke-width="1.51"/><path d="M304,381L305,431L336,413Z" fill="#6b8490" stroke="#6b8490" stroke-width="1.51"/><path d="M284,231L264,275L336,261Z" fill="#7c94a0" stroke="#7c94a0" stroke-width="1.51"/><path d="M242,535L283,582L320,510Z" fill="#647983" stroke="#647983" stroke-width="1.51"/><path d="M254,506L242,535L320,510Z" fill="#677c87" stroke="#677c87" stroke-width="1.51"/><path d="M305,431L254,506L320,510Z" fill="#687f8a" stroke="#687f8a" stroke-width="1.51"/><path d="M227,143L294,158L300,73Z" fill="#91a5af" stroke="#91a5af" stroke-width="1.51"/><path d="M229,190L284,231L294,158Z" fill="#889da8" stroke="#889da8" stroke-width="1.51"/><path d="M256,-9L228,54L298,6Z" fill="#a4b5bd" stroke="#a4b5bd" stroke-width="1.51"/><path d="M228,54L213,70L300,73Z" fill="#9eafb8" stroke="#9eafb8" stroke-width="1.51"/><path d="M213,70L227,143L300,73Z" fill="#99abb4" stroke="#99abb4" stroke-width="1.51"/><path d="M298,6L228,54L300,73Z" fill="#9eb0b8" stroke="#9eb0b8" stroke-width="1.51"/><path d="M282,321L210,382L304,381Z" fill="#738c98" stroke="#738c98" stroke-width="1.51"/><path d="M210,382L222,432L304,381Z" fill="#738b97" stroke="#738b97" stroke-width="1.51"/><path d="M304,381L222,432L305,431Z" fill="#6e8792" stroke="#6e8792" stroke-width="1.51"/><path d="M222,432L254,506L305,431Z" fill="#6d848f" stroke="#6d848f" stroke-width="1.51"/><path d="M230,310L210,382L282,321Z" fill="#78909c" stroke="#78909c" stroke-width="1.51"/><path d="M220,607L270,643L283,582Z" fill="#60737d" stroke="#60737d" stroke-width="1.51"/><path d="M215,-89L256,-9L284,-90Z" fill="#b2c0c7" stroke="#b2c0c7" stroke-width="1.51"/><path d="M227,143L229,190L294,158Z" fill="#8da1ac" stroke="#8da1ac" stroke-width="1.51"/><path d="M215,-89L230,-7L256,-9Z" fill="#b0bec5" stroke="#b0bec5" stroke-width="1.51"/><path d="M264,275L230,310L282,321Z" fill="#7a929e" stroke="#7a929e" stroke-width="1.51"/><path d="M242,535L218,583L283,582Z" fill="#657982" stroke="#657982" stroke-width="1.51"/><path d="M218,583L220,607L283,582Z" fill="#647780" stroke="#647780" stroke-width="1.51"/><path d="M204,258L264,275L284,231Z" fill="#8298a3" stroke="#8298a3" stroke-width="1.51"/><path d="M229,190L204,258L284,231Z" fill="#869ca7" stroke="#869ca7" stroke-width="1.51"/><path d="M230,-7L228,54L256,-9Z" fill="#a8b8bf" stroke="#a8b8bf" stroke-width="1.51"/><path d="M220,607L259,686L270,643Z" fill="#5e7079" stroke="#5e7079" stroke-width="1.51"/><path d="M164,671L231,709L259,686Z" fill="#5d6d76" stroke="#5d6d76" stroke-width="1.51"/><path d="M220,607L164,671L259,686Z" fill="#61727a" stroke="#61727a" stroke-width="1.51"/><path d="M204,258L230,310L264,275Z" fill="#8097a2" stroke="#8097a2" stroke-width="1.51"/><path d="M222,432L164,503L254,506Z" fill="#708690" stroke="#708690" stroke-width="1.51"/><path d="M164,503L242,535L254,506Z" fill="#6d818b" stroke="#6d818b" stroke-width="1.51"/><path d="M177,220L204,258L229,190Z" fill="#8ba0aa" stroke="#8ba0aa" stroke-width="1.51"/><path d="M175,327L210,382L230,310Z" fill="#7c949f" stroke="#7c949f" stroke-width="1.51"/><path d="M215,-89L142,-46L230,-7Z" fill="#b7c4cb" stroke="#b7c4cb" stroke-width="1.51"/><path d="M168,29L228,54L230,-7Z" fill="#aab9c0" stroke="#aab9c0" stroke-width="1.51"/><path d="M164,671L79,703L231,709Z" fill="#64737a" stroke="#64737a" stroke-width="1.51"/><path d="M164,503L218,583L242,535Z" fill="#6c8089" stroke="#6c8089" stroke-width="1.51"/><path d="M174,-95L142,-46L215,-89Z" fill="#becad0" stroke="#becad0" stroke-width="1.51"/><path d="M153,634L164,671L220,607Z" fill="#677880" stroke="#677880" stroke-width="1.51"/><path d="M161,431L164,503L222,432Z" fill="#778c96" stroke="#778c96" stroke-width="1.51"/><path d="M213,70L148,110L227,143Z" fill="#9eafb8" stroke="#9eafb8" stroke-width="1.51"/><path d="M227,143L154,161L229,190Z" fill="#93a6b0" stroke="#93a6b0" stroke-width="1.51"/><path d="M204,258L175,327L230,310Z" fill="#8298a3" stroke="#8298a3" stroke-width="1.51"/><path d="M142,-46L168,29L230,-7Z" fill="#b3c1c7" stroke="#b3c1c7" stroke-width="1.51"/><path d="M164,503L138,577L218,583Z" fill="#70828b" stroke="#70828b" stroke-width="1.51"/><path d="M168,29L213,70L228,54Z" fill="#a6b6be" stroke="#a6b6be" stroke-width="1.51"/><path d="M154,161L177,220L229,190Z" fill="#92a5af" stroke="#92a5af" stroke-width="1.51"/><path d="M156,280L175,327L204,258Z" fill="#879ca7" stroke="#879ca7" stroke-width="1.51"/><path d="M148,110L154,161L227,143Z" fill="#9badb6" stroke="#9badb6" stroke-width="1.51"/><path d="M210,382L161,431L222,432Z" fill="#788e9a" stroke="#788e9a" stroke-width="1.51"/><path d="M138,577L153,634L218,583Z" fill="#6c7e86" stroke="#6c7e86" stroke-width="1.51"/><path d="M218,583L153,634L220,607Z" fill="#687982" stroke="#687982" stroke-width="1.51"/><path d="M175,327L138,367L210,382Z" fill="#7f96a1" stroke="#7f96a1" stroke-width="1.51"/><path d="M168,29L148,110L213,70Z" fill="#a7b6be" stroke="#a7b6be" stroke-width="1.51"/><path d="M138,367L161,431L210,382Z" fill="#7d939e" stroke="#7d939e" stroke-width="1.51"/><path d="M177,220L156,280L204,258Z" fill="#8ba0aa" stroke="#8ba0aa" stroke-width="1.51"/><path d="M138,367L124,403L161,431Z" fill="#8095a0" stroke="#8095a0" stroke-width="1.51"/><path d="M161,431L103,427L164,503Z" fill="#7d919b" stroke="#7d919b" stroke-width="1.51"/><path d="M142,-46L107,8L168,29Z" fill="#b8c5cb" stroke="#b8c5cb" stroke-width="1.51"/><path d="M112,103L148,110L168,29Z" fill="#aab9c1" stroke="#aab9c1" stroke-width="1.51"/><path d="M122,-107L142,-46L174,-95Z" fill="#c4ced4" stroke="#c4ced4" stroke-width="1.51"/><path d="M156,280L109,328L175,327Z" fill="#889da8" stroke="#889da8" stroke-width="1.51"/><path d="M124,222L156,280L177,220Z" fill="#90a4ae" stroke="#90a4ae" stroke-width="1.51"/><path d="M154,161L124,222L177,220Z" fill="#95a8b2" stroke="#95a8b2" stroke-width="1.51"/><path d="M107,8L112,103L168,29Z" fill="#b1bfc6" stroke="#b1bfc6" stroke-width="1.51"/><path d="M109,328L138,367L175,327Z" fill="#859ba6" stroke="#859ba6" stroke-width="1.51"/><path d="M76,500L138,577L164,503Z" fill="#788a93" stroke="#788a93" stroke-width="1.51"/><path d="M103,427L76,500L164,503Z" fill="#7e919a" stroke="#7e919a" stroke-width="1.51"/><path d="M76,500L105,581L138,577Z" fill="#798992" stroke="#798992" stroke-width="1.51"/><path d="M102,-29L107,8L142,-46Z" fill="#bfcad0" stroke="#bfcad0" stroke-width="1.51"/><path d="M153,634L99,626L164,671Z" fill="#6c7b83" stroke="#6c7b83" stroke-width="1.51"/><path d="M99,626L79,703L164,671Z" fill="#6d7b83" stroke="#6d7b83" stroke-width="1.51"/><path d="M138,577L99,626L153,634Z" fill="#708088" stroke="#708088" stroke-width="1.51"/><path d="M148,110L92,142L154,161Z" fill="#a2b2ba" stroke="#a2b2ba" stroke-width="1.51"/><path d="M124,222L85,265L156,280Z" fill="#93a6b0" stroke="#93a6b0" stroke-width="1.51"/><path d="M124,403L103,427L161,431Z" fill="#81959f" stroke="#81959f" stroke-width="1.51"/><path d="M105,581L99,626L138,577Z" fill="#74848c" stroke="#74848c" stroke-width="1.51"/><path d="M112,103L92,142L148,110Z" fill="#a7b7be" stroke="#a7b7be" stroke-width="1.51"/><path d="M92,142L124,222L154,161Z" fill="#9daeb7" stroke="#9daeb7" stroke-width="1.51"/><path d="M85,265L109,328L156,280Z" fill="#8fa3ad" stroke="#8fa3ad" stroke-width="1.51"/><path d="M122,-107L102,-29L142,-46Z" fill="#c4ced4" stroke="#c4ced4" stroke-width="1.51"/><path d="M76,500L58,526L105,581Z" fill="#7e8e96" stroke="#7e8e96" stroke-width="1.51"/><path d="M-4,-74L15,-68L122,-107Z" fill="#d2dade" stroke="#d2dade" stroke-width="1.51"/><path d="M107,8L51,94L112,103Z" fill="#b3c1c7" stroke="#b3c1c7" stroke-width="1.51"/><path d="M92,142L49,185L124,222Z" fill="#a1b1ba" stroke="#a1b1ba" stroke-width="1.51"/><path d="M109,328L124,403L138,367Z" fill="#859aa5" stroke="#859aa5" stroke-width="1.51"/><path d="M58,526L60,573L105,581Z" fill="#7c8c94" stroke="#7c8c94" stroke-width="1.51"/><path d="M15,-68L102,-29L122,-107Z" fill="#cbd4d8" stroke="#cbd4d8" stroke-width="1.51"/><path d="M109,328L30,393L124,403Z" fill="#899ea8" stroke="#899ea8" stroke-width="1.51"/><path d="M30,393L103,427L124,403Z" fill="#879ba5" stroke="#879ba5" stroke-width="1.51"/><path d="M49,185L85,265L124,222Z" fill="#9cadb6" stroke="#9cadb6" stroke-width="1.51"/><path d="M19,46L51,94L107,8Z" fill="#bbc7cd" stroke="#bbc7cd" stroke-width="1.51"/><path d="M14,315L30,393L109,328Z" fill="#90a4ae" stroke="#90a4ae" stroke-width="1.51"/><path d="M85,265L43,279L109,328Z" fill="#94a7b1" stroke="#94a7b1" stroke-width="1.51"/><path d="M51,94L92,142L112,103Z" fill="#acbbc2" stroke="#acbbc2" stroke-width="1.51"/><path d="M24,626L79,703L99,626Z" fill="#748289" stroke="#748289" stroke-width="1.51"/><path d="M22,431L76,500L103,427Z" fill="#8799a2" stroke="#8799a2" stroke-width="1.51"/><path d="M60,573L99,626L105,581Z" fill="#77878e" stroke="#77878e" stroke-width="1.51"/><path d="M43,279L14,315L109,328Z" fill="#95a8b1" stroke="#95a8b1" stroke-width="1.51"/><path d="M102,-29L17,-8L107,8Z" fill="#c2cdd2" stroke="#c2cdd2" stroke-width="1.51"/><path d="M17,-8L19,46L107,8Z" fill="#c2cdd3" stroke="#c2cdd3" stroke-width="1.51"/><path d="M15,-68L17,-8L102,-29Z" fill="#cbd4d9" stroke="#cbd4d9" stroke-width="1.51"/><path d="M30,393L22,431L103,427Z" fill="#8b9ea7" stroke="#8b9ea7" stroke-width="1.51"/><path d="M24,626L28,702L79,703Z" fill="#758287" stroke="#758287" stroke-width="1.51"/><path d="M60,573L24,626L99,626Z" fill="#7a888f" stroke="#7a888f" stroke-width="1.51"/><path d="M49,185L43,279L85,265Z" fill="#9daeb7" stroke="#9daeb7" stroke-width="1.51"/><path d="M51,94L28,132L92,142Z" fill="#aebdc4" stroke="#aebdc4" stroke-width="1.51"/><path d="M28,132L49,185L92,142Z" fill="#a9b9c0" stroke="#a9b9c0" stroke-width="1.51"/><path d="M22,431L2,500L76,500Z" fill="#899aa2" stroke="#899aa2" stroke-width="1.51"/><path d="M2,500L58,526L76,500Z" fill="#84959d" stroke="#84959d" stroke-width="1.51"/><path d="M-32,218L43,279L49,185Z" fill="#a4b5bd" stroke="#a4b5bd" stroke-width="1.51"/><path d="M-43,553L24,626L60,573Z" fill="#819096" stroke="#819096" stroke-width="1.51"/><path d="M58,526L2,500L60,573Z" fill="#83939b" stroke="#83939b" stroke-width="1.51"/><path d="M2,500L-43,553L60,573Z" fill="#86959c" stroke="#86959c" stroke-width="1.51"/><path d="M-43,553L-16,627L24,626Z" fill="#839097" stroke="#839097" stroke-width="1.51"/><path d="M-42,682L-89,712L28,702Z" fill="#7c878b" stroke="#7c878b" stroke-width="1.51"/><path d="M14,315L-22,368L30,393Z" fill="#95a8b1" stroke="#95a8b1" stroke-width="1.51"/><path d="M28,132L-33,158L49,185Z" fill="#aebcc4" stroke="#aebcc4" stroke-width="1.51"/><path d="M-23,112L28,132L51,94Z" fill="#b5c2c9" stroke="#b5c2c9" stroke-width="1.51"/><path d="M19,46L-23,112L51,94Z" fill="#bbc7cd" stroke="#bbc7cd" stroke-width="1.51"/><path d="M-33,158L-32,218L49,185Z" fill="#adbcc3" stroke="#adbcc3" stroke-width="1.51"/><path d="M24,626L-16,627L28,702Z" fill="#7c888e" stroke="#7c888e" stroke-width="1.51"/><path d="M-16,627L-42,682L28,702Z" fill="#7c888d" stroke="#7c888d" stroke-width="1.51"/><path d="M-43,290L14,315L43,279Z" fill="#9dafb7" stroke="#9dafb7" stroke-width="1.51"/><path d="M-32,218L-43,290L43,279Z" fill="#a4b4bc" stroke="#a4b4bc" stroke-width="1.51"/><path d="M-27,332L-22,368L14,315Z" fill="#9aacb5" stroke="#9aacb5" stroke-width="1.51"/><path d="M15,-68L-4,-74L17,-8Z" fill="#d1dade" stroke="#d1dade" stroke-width="1.51"/><path d="M17,-8L-24,34L19,46Z" fill="#c6d1d5" stroke="#c6d1d5" stroke-width="1.51"/><path d="M-27,441L2,500L22,431Z" fill="#8fa0a8" stroke="#8fa0a8" stroke-width="1.51"/><path d="M-22,368L-27,441L22,431Z" fill="#93a4ad" stroke="#93a4ad" stroke-width="1.51"/><path d="M-22,368L22,431L30,393Z" fill="#92a4ad" stroke="#92a4ad" stroke-width="1.51"/><path d="M-4,-74L-41,-16L17,-8Z" fill="#d2dadd" stroke="#d2dadd" stroke-width="1.51"/><path d="M-24,34L-23,112L19,46Z" fill="#c1cdd2" stroke="#c1cdd2" stroke-width="1.51"/><path d="M-23,112L-33,158L28,132Z" fill="#b5c3c9" stroke="#b5c3c9" stroke-width="1.51"/><path d="M-41,-16L-24,34L17,-8Z" fill="#ccd6da" stroke="#ccd6da" stroke-width="1.51"/><path d="M-43,290L-27,332L14,315Z" fill="#9eafb8" stroke="#9eafb8" stroke-width="1.51"/><path d="M-65,262L-43,290L-32,218Z" fill="#a9b8bf" stroke="#a9b8bf" stroke-width="1.51"/><path d="M-56,533L-43,553L2,500Z" fill="#8c9aa2" stroke="#8c9aa2" stroke-width="1.51"/><path d="M-27,441L-58,474L2,500Z" fill="#91a0a8" stroke="#91a0a8" stroke-width="1.51"/><path d="M-58,474L-56,533L2,500Z" fill="#8f9ea5" stroke="#8f9ea5" stroke-width="1.51"/><path d="M-24,34L-59,30L-23,112Z" fill="#c6d0d5" stroke="#c6d0d5" stroke-width="1.51"/><path d="M-43,553L-87,610L-16,627Z" fill="#88949b" stroke="#88949b" stroke-width="1.51"/><path d="M-97,-70L-41,-16L-4,-74Z" fill="#d9e0e3" stroke="#d9e0e3" stroke-width="1.51"/><path d="M-41,-16L-59,30L-24,34Z" fill="#cdd6da" stroke="#cdd6da" stroke-width="1.51"/><path d="M-59,30L-98,89L-23,112Z" fill="#c5d0d5" stroke="#c5d0d5" stroke-width="1.51"/><path d="M-101,378L-27,441L-22,368Z" fill="#9aaab3" stroke="#9aaab3" stroke-width="1.51"/><path d="M-87,610L-42,682L-16,627Z" fill="#848f95" stroke="#848f95" stroke-width="1.51"/><path d="M-33,158L-91,172L-32,218Z" fill="#b3c0c8" stroke="#b3c0c8" stroke-width="1.51"/><path d="M-91,172L-84,217L-32,218Z" fill="#b2c0c7" stroke="#b2c0c7" stroke-width="1.51"/><path d="M-98,89L-33,158L-23,112Z" fill="#bdc9cf" stroke="#bdc9cf" stroke-width="1.51"/><path d="M-78,349L-101,378L-22,368Z" fill="#9eaeb7" stroke="#9eaeb7" stroke-width="1.51"/><path d="M-27,332L-78,349L-22,368Z" fill="#9caeb6" stroke="#9caeb6" stroke-width="1.51"/><path d="M-98,89L-91,172L-33,158Z" fill="#bdc9ce" stroke="#bdc9ce" stroke-width="1.51"/><path d="M-97,-70L-102,-36L-41,-16Z" fill="#dbe2e5" stroke="#dbe2e5" stroke-width="1.51"/><path d="M-101,378L-58,474L-27,441Z" fill="#99a8b0" stroke="#99a8b0" stroke-width="1.51"/><path d="M-43,290L-78,349L-27,332Z" fill="#a0b1ba" stroke="#a0b1ba" stroke-width="1.51"/><path d="M-58,546L-87,610L-43,553Z" fill="#8c999f" stroke="#8c999f" stroke-width="1.51"/><path d="M-84,217L-65,262L-32,218Z" fill="#adbcc3" stroke="#adbcc3" stroke-width="1.51"/><path d="M-56,533L-58,546L-43,553Z" fill="#8d9ba2" stroke="#8d9ba2" stroke-width="1.51"/><path d="M-87,610L-89,712L-42,682Z" fill="#838e93" stroke="#838e93" stroke-width="1.51"/><path d="M-102,-36L-59,30L-41,-16Z" fill="#d5dce0" stroke="#d5dce0" stroke-width="1.51"/><path d="M-65,262L-78,349L-43,290Z" fill="#a5b4bd" stroke="#a5b4bd" stroke-width="1.51"/><path d="M-101,378L-87,610L-58,474Z" fill="#96a4ab" stroke="#96a4ab" stroke-width="1.51"/><path d="M-87,610L-58,546L-56,533Z" fill="#8d9aa0" stroke="#8d9aa0" stroke-width="1.51"/><path d="M-58,474L-87,610L-56,533Z" fill="#8f9da3" stroke="#8f9da3" stroke-width="1.51"/><path d="M-102,-36L-98,89L-59,30Z" fill="#d1d9de" stroke="#d1d9de" stroke-width="1.51"/><path d="M-101,378L-78,349L-65,262Z" fill="#a3b3bc" stroke="#a3b3bc" stroke-width="1.51"/><path d="M-84,217L-101,378L-65,262Z" fill="#a9b8c0" stroke="#a9b8c0" stroke-width="1.51"/><path d="M-91,172L-101,378L-84,217Z" fill="#aebcc4" stroke="#aebcc4" stroke-width="1.51"/><path d="M-101,378L-89,712L-87,610Z" fill="#909ca2" stroke="#909ca2" stroke-width="1.51"/><path d="M-98,89L-101,378L-91,172Z" fill="#b5c2c9" stroke="#b5c2c9" stroke-width="1.51"/><path d="M-102,-36L-101,378L-98,89Z" fill="#bfcad0" stroke="#bfcad0" stroke-width="1.51"/></svg>