<!-- Generated by IcoMoon.io -->
<svg version="1.1" xmlns="http://www.w3.org/2000/svg" width="32" height="32" viewBox="0 0 32 32">
<title>jest</title>
<path d="M28.661 15.74c0-1.643-1.332-2.976-2.976-2.976-0.106 0-0.21 0.006-0.313 0.016l4.087-12.054h-17.369l4.081 12.044c-0.060-0.004-0.12-0.006-0.181-0.006-1.643 0-2.976 1.332-2.976 2.976 0 1.328 0.871 2.453 2.072 2.836-0.635 1.099-1.433 2.089-2.34 2.945-1.233 1.163-2.644 2.045-4.17 2.588-1.817-0.933-2.675-3.009-1.901-4.829 0.087-0.205 0.177-0.414 0.262-0.621 1.316-0.307 2.297-1.487 2.297-2.897 0-1.643-1.332-2.976-2.976-2.976s-2.976 1.332-2.976 2.976c0 1.008 0.501 1.898 1.268 2.436-0.737 1.677-1.819 3.432-2.156 5.466-0.404 2.438-0.001 5.025 2.107 6.487 4.91 3.403 10.24-2.11 15.86-3.495 2.037-0.502 4.272-0.421 6.067-1.461 1.348-0.78 2.236-2.074 2.488-3.526 0.249-1.434-0.114-2.863-0.949-4.021 0.432-0.517 0.692-1.181 0.692-1.907v0zM18.967 15.751c0-0.004 0-0.007 0-0.011 0-1.079-0.575-2.024-1.434-2.546l3.248-6.569 3.254 6.638c-0.799 0.533-1.326 1.443-1.326 2.476 0 0.022 0.001 0.043 0.002 0.065l-3.744-0.054z"></path>
<path d="M29.388 15.74c0-1.807-1.302-3.316-3.018-3.638l4.103-12.102h-19.396l4.11 12.127c-1.656 0.368-2.898 1.848-2.898 3.613 0 1.326 0.7 2.49 1.75 3.144-0.505 0.752-1.104 1.46-1.79 2.108-1.088 1.027-2.301 1.805-3.608 2.318-1.317-0.827-1.873-2.387-1.295-3.745l0.045-0.106c0.028-0.067 0.057-0.133 0.085-0.2 1.446-0.504 2.487-1.881 2.487-3.496 0-2.042-1.661-3.702-3.703-3.702s-3.702 1.661-3.702 3.702c0 1.030 0.423 1.964 1.105 2.635-0.124 0.263-0.253 0.531-0.387 0.806-0.623 1.28-1.33 2.731-1.597 4.342-0.531 3.2 0.325 5.758 2.41 7.203 1.265 0.877 2.55 1.222 3.842 1.222 2.434-0 4.897-1.223 7.305-2.419 1.735-0.861 3.528-1.752 5.3-2.189 0.659-0.163 1.338-0.26 2.056-0.364 1.424-0.205 2.897-0.418 4.201-1.173 1.512-0.876 2.547-2.345 2.84-4.030 0.251-1.447-0.051-2.896-0.789-4.125 0.344-0.562 0.542-1.222 0.542-1.927v0zM27.934 15.74c0 1.24-1.009 2.249-2.249 2.249s-2.249-1.009-2.249-2.249 1.009-2.249 2.249-2.249c1.24 0 2.249 1.009 2.249 2.249v0zM28.446 1.453l-3.623 10.687c-0.157 0.038-0.31 0.085-0.459 0.142l-3.579-7.302-3.59 7.259c-0.155-0.053-0.315-0.097-0.479-0.13l-3.611-10.656h15.341zM15.992 13.491c1.24 0 2.249 1.009 2.249 2.249s-1.009 2.249-2.249 2.249c-1.24 0-2.249-1.009-2.249-2.249s1.009-2.249 2.249-2.249v0zM6.261 13.513c1.24 0 2.249 1.009 2.249 2.249s-1.009 2.249-2.249 2.249c-1.24 0-2.249-1.009-2.249-2.249s1.009-2.249 2.249-2.249v0zM28.202 21.544c-0.219 1.261-0.997 2.362-2.136 3.021-1.061 0.615-2.333 0.798-3.68 0.992-0.721 0.104-1.467 0.212-2.196 0.391-1.927 0.475-3.794 1.402-5.599 2.299-3.612 1.794-6.732 3.343-9.673 1.305-2.155-1.493-2.055-4.256-1.804-5.77 0.233-1.403 0.861-2.695 1.47-3.944 0.105-0.216 0.207-0.428 0.308-0.638 0.302 0.121 0.622 0.203 0.957 0.24-0.619 2.043 0.355 4.265 2.398 5.315l0.28 0.144 0.296-0.105c1.616-0.575 3.104-1.499 4.425-2.744 0.854-0.805 1.587-1.696 2.19-2.648 0.181 0.027 0.366 0.042 0.554 0.042 2.042 0 3.703-1.661 3.703-3.703 0-1.098-0.481-2.085-1.243-2.764l2.327-4.705 2.35 4.795c-0.705 0.675-1.146 1.624-1.146 2.674 0 2.042 1.661 3.703 3.702 3.703 0.784 0 1.512-0.246 2.111-0.664 0.416 0.852 0.571 1.81 0.405 2.765v0z"></path>
</svg>
