<!-- Generated by IcoMoon.io -->
<svg version="1.1" xmlns="http://www.w3.org/2000/svg" width="32" height="32" viewBox="0 0 32 32">
<title>redux</title>
<path d="M22.173 21.967c1.181-0.122 2.077-1.14 2.036-2.362s-1.059-2.199-2.28-2.199h-0.081c-1.262 0.041-2.24 1.099-2.199 2.362 0.041 0.611 0.285 1.14 0.651 1.507-1.384 2.729-3.502 4.724-6.678 6.393-2.158 1.14-4.398 1.547-6.638 1.262-1.833-0.244-3.258-1.059-4.154-2.403-1.303-1.995-1.425-4.154-0.326-6.312 0.774-1.547 1.995-2.688 2.769-3.258-0.163-0.529-0.407-1.425-0.529-2.077-5.905 4.276-5.294 10.058-3.502 12.787 1.344 2.036 4.072 3.299 7.085 3.299 0.814 0 1.629-0.081 2.443-0.285 5.212-1.018 9.162-4.113 11.402-8.715zM29.34 16.917c-3.095-3.624-7.656-5.62-12.868-5.62h-0.652c-0.367-0.733-1.14-1.222-1.995-1.222h-0.082c-1.262 0.041-2.239 1.099-2.199 2.362 0.041 1.222 1.059 2.199 2.28 2.199h0.081c0.896-0.041 1.67-0.611 1.995-1.385h0.733c3.095 0 6.027 0.896 8.674 2.647 2.036 1.344 3.502 3.095 4.316 5.213 0.692 1.71 0.651 3.38-0.081 4.805-1.14 2.158-3.054 3.339-5.579 3.339-1.629 0-3.176-0.489-3.991-0.855-0.448 0.407-1.262 1.059-1.832 1.466 1.751 0.814 3.543 1.262 5.253 1.262 3.909 0 6.8-2.158 7.9-4.317 1.181-2.362 1.099-6.434-1.955-9.896zM8.653 22.659c0.041 1.222 1.059 2.199 2.28 2.199h0.082c1.262-0.041 2.24-1.099 2.199-2.362-0.041-1.222-1.059-2.199-2.28-2.199h-0.081c-0.082 0-0.204 0-0.285 0.041-1.67-2.769-2.362-5.782-2.117-9.040 0.163-2.443 0.977-4.561 2.402-6.312 1.181-1.507 3.461-2.24 5.009-2.28 4.316-0.082 6.149 5.294 6.271 7.452 0.529 0.122 1.425 0.407 2.036 0.611-0.489-6.597-4.561-10.018-8.47-10.018-3.665 0-7.045 2.647-8.389 6.556-1.873 5.213-0.652 10.221 1.629 14.172-0.204 0.285-0.326 0.733-0.285 1.181z"></path>
</svg>
