<!-- Generated by IcoMoon.io -->
<svg version="1.1" xmlns="http://www.w3.org/2000/svg" width="32" height="32" viewBox="0 0 32 32">
<title>socketio</title>
<path d="M15.102 0.807c-10.879 0.82-17.442 11.857-12.885 21.667 4.991 10.746 19.947 11.829 26.513 1.919 5.49-8.287 1.614-19.599-7.819-22.817-1.665-0.568-4.137-0.895-5.809-0.769zM17.835 3.115c5.739 1.001 10.255 5.379 10.982 10.647 0.043 0.309 0.1 0.704 0.127 0.879 0.827 5.331-2.831 11.382-8.155 13.49-8.090 3.202-17.158-2.492-17.723-11.128-0.468-7.162 4.523-13.148 11.67-13.997 0.507-0.060 2.535 0.012 3.1 0.11zM20.705 8.313c-1.658 1.332-1.616 1.299-4.968 4.082-1.342 1.115-2.653 2.202-2.914 2.417l-0.473 0.39 1.727 0.043c0.95 0.024 1.975 0.027 2.279 0.008l0.553-0.035 0.634-0.96c0.349-0.528 1.494-2.257 2.544-3.843 2.174-3.282 2.181-3.292 2.13-3.289-0.020 0.001-0.701 0.536-1.512 1.187zM12.902 20.12c-2.765 4.178-3.152 4.771-3.115 4.771 0.075 0 2.674-2.104 5.578-4.516 1.358-1.128 2.885-2.391 3.393-2.807l0.923-0.756-0.996-0.030c-0.548-0.016-1.57-0.033-2.271-0.037l-1.275-0.007-2.237 3.38z"></path>
</svg>
